<?xml version="1.0" standalone="no"?>
<!DOCTYPE svg PUBLIC "-//W3C//DTD SVG 20010904//EN"
 "http://www.w3.org/TR/2001/REC-SVG-20010904/DTD/svg10.dtd">
<svg version="1.0" xmlns="http://www.w3.org/2000/svg"
 width="944.000000pt" height="944.000000pt" viewBox="0 0 944.000000 944.000000"
 preserveAspectRatio="xMidYMid meet">
<metadata>
Created by potrace 1.14, written by Peter Selinger 2001-2017
</metadata>
<g transform="translate(0.000000,944.000000) scale(0.100000,-0.100000)"
fill="#000000" stroke="none">
<path d="M962 9421 c-9 -7 -7 -3393 2 -3466 47 -364 213 -670 496 -915 58 -51
229 -166 260 -175 3 -1 28 -12 55 -25 28 -13 52 -25 55 -25 3 0 31 -11 62 -23
67 -25 196 -59 253 -66 22 -2 40 -5 40 -6 0 -1 41 -4 92 -7 l92 -5 -3 1729
c-1 950 -5 1743 -9 1761 -3 18 -11 61 -18 95 -23 128 -129 393 -188 473 -9 12
-23 32 -31 44 -82 125 -261 302 -379 375 -9 6 -35 23 -58 38 -68 43 -310 152
-326 146 -1 -1 -22 5 -47 12 -25 7 -54 13 -65 14 -11 1 -31 5 -45 8 -58 15
-224 27 -238 18z"/>
<path d="M3024 6840 l2 -705 924 -2 c509 -1 957 -4 995 -7 110 -7 207 -21 295
-41 36 -8 77 -17 93 -20 15 -2 32 -7 37 -10 6 -3 18 -8 27 -10 43 -8 220 -78
310 -121 106 -51 306 -170 311 -185 2 -5 8 -9 13 -9 10 0 103 -67 179 -128 50
-41 272 -260 310 -307 14 -16 41 -50 60 -75 19 -25 38 -46 42 -48 5 -2 8 -9 8
-16 0 -7 9 -21 20 -31 11 -10 20 -24 20 -32 0 -7 4 -13 8 -13 5 0 14 -10 21
-22 6 -13 25 -45 42 -73 107 -176 246 -520 273 -680 6 -30 21 -109 31 -155 3
-14 7 -52 10 -85 3 -33 7 -76 10 -95 12 -88 6 -363 -11 -490 -4 -25 -7 -54 -8
-65 -14 -133 -80 -381 -143 -533 -80 -197 -229 -441 -358 -588 -5 -7 -21 -26
-35 -44 -36 -45 -190 -200 -251 -251 -28 -24 -57 -49 -64 -56 -20 -19 -188
-139 -215 -153 -14 -7 -27 -16 -30 -19 -8 -9 -76 -47 -160 -89 -41 -20 -78
-41 -81 -45 -3 -5 -8 -8 -10 -6 -2 1 -24 -7 -49 -18 -25 -11 -81 -32 -125 -47
-44 -16 -87 -31 -95 -34 -19 -6 -15 -6 -140 -37 -122 -31 -130 -33 -190 -41
-25 -3 -56 -8 -70 -10 -106 -17 -358 -23 -515 -11 -86 6 -113 10 -187 23 -18
3 -47 7 -65 10 -17 2 -75 16 -130 29 -54 14 -107 28 -117 30 -140 32 -503 210
-616 301 -8 7 -47 37 -86 66 -162 120 -311 266 -446 434 -69 87 -171 241 -206
311 -14 29 -29 53 -34 53 -4 0 -8 5 -8 11 0 6 -14 41 -31 77 -31 68 -89 209
-93 227 -2 6 -10 35 -20 65 -10 30 -24 78 -31 107 -13 48 -18 67 -30 128 -3
14 -7 36 -10 50 -27 134 -37 266 -38 513 l0 182 -36 1 c-320 8 -614 80 -891
220 -97 49 -242 135 -284 170 -6 5 -48 38 -93 74 -45 35 -84 69 -88 75 -3 5
-9 10 -13 10 -9 0 -7 -1145 2 -1250 9 -106 21 -194 52 -355 9 -53 55 -229 71
-275 8 -25 17 -56 19 -69 3 -13 12 -37 20 -52 8 -16 12 -29 9 -29 -3 0 0 -10
7 -22 6 -13 13 -30 15 -38 13 -76 242 -557 334 -700 9 -14 31 -50 50 -80 18
-30 36 -57 40 -60 3 -3 12 -15 18 -28 7 -13 19 -31 26 -40 8 -9 38 -51 67 -92
30 -41 61 -84 70 -95 154 -189 355 -403 478 -510 75 -64 139 -115 225 -179 50
-36 99 -73 110 -81 10 -8 25 -15 32 -15 7 0 13 -4 13 -10 0 -5 5 -10 12 -10 6
0 19 -7 28 -15 40 -36 333 -184 515 -260 126 -52 342 -131 388 -140 9 -2 21
-6 25 -9 10 -6 250 -68 277 -72 11 -1 20 -3 20 -4 0 -2 9 -4 20 -5 11 -2 45
-9 75 -15 30 -7 69 -14 85 -16 17 -2 35 -6 42 -8 6 -3 38 -8 70 -11 32 -4 69
-9 83 -11 27 -5 50 -8 205 -20 178 -14 596 -6 679 12 12 3 44 7 71 9 28 2 61
7 75 9 64 14 77 16 110 20 19 2 67 12 105 21 39 9 86 19 105 22 19 3 41 10 48
15 6 6 12 8 12 5 0 -3 15 -1 33 4 30 9 48 14 87 24 8 2 16 4 18 5 1 2 5 3 10
4 4 1 21 6 37 12 17 6 62 22 100 34 39 13 84 28 100 35 17 7 66 27 110 45 81
32 346 159 355 169 5 6 70 42 117 65 13 6 23 14 23 19 0 4 6 7 13 7 7 0 22 7
32 15 11 9 49 34 85 57 36 23 69 45 75 50 5 4 39 29 75 55 66 48 191 146 220
173 9 8 48 43 86 77 110 97 233 223 334 343 30 36 57 67 60 70 4 3 19 23 36
45 16 22 36 48 45 58 9 10 34 43 55 75 21 31 42 59 47 60 4 2 7 9 7 16 0 7 8
21 18 32 48 51 272 449 272 483 0 6 5 11 10 11 6 0 10 4 10 9 0 5 10 31 22 58
11 26 22 53 23 58 2 6 12 30 23 55 22 48 81 212 106 295 51 171 77 271 91 350
2 11 5 31 8 45 3 14 8 43 12 65 4 22 10 49 12 60 6 30 14 86 18 125 1 19 6 60
9 90 4 30 8 81 11 113 2 31 6 61 10 66 3 5 1 12 -5 16 -6 4 -7 13 -2 23 9 19
7 274 -2 422 -8 115 -14 185 -16 185 -1 0 -4 20 -6 45 -8 73 -11 91 -60 343
-5 26 -26 109 -48 192 -22 80 -113 348 -138 405 -11 25 -24 54 -28 65 -35 81
-136 285 -179 359 -28 49 -51 91 -51 93 0 2 -8 16 -19 31 -10 15 -47 70 -81
122 -56 84 -206 286 -235 316 -5 6 -32 37 -60 70 -53 62 -262 274 -330 334
-33 29 -202 169 -240 198 -98 76 -354 240 -465 298 -30 16 -56 32 -58 37 -2 4
-7 7 -12 7 -5 0 -61 25 -125 55 -63 30 -118 55 -120 55 -2 0 -29 11 -59 25
-30 14 -61 25 -68 25 -8 0 -18 4 -24 8 -21 19 -314 110 -469 146 -38 9 -88 21
-110 26 -22 5 -58 12 -80 14 -22 3 -51 8 -65 11 -14 3 -45 7 -70 10 -25 3 -61
8 -80 11 -19 3 -55 8 -80 10 -25 2 -79 6 -120 10 -41 3 -498 7 -1016 8 l-941
1 1 -705z"/>
</g>
</svg>
