<?xml version="1.0" standalone="no"?>
<!DOCTYPE svg PUBLIC "-//W3C//DTD SVG 20010904//EN"
 "http://www.w3.org/TR/2001/REC-SVG-20010904/DTD/svg10.dtd">
<svg version="1.0" xmlns="http://www.w3.org/2000/svg"
 width="660.000000pt" height="660.000000pt" viewBox="0 0 660.000000 660.000000"
 preserveAspectRatio="xMidYMid meet">
<metadata>
Created by potrace 1.14, written by Peter Selinger 2001-2017
</metadata>
<g transform="translate(0.000000,660.000000) scale(0.100000,-0.100000)"
fill="#000000" stroke="none">
<path d="M659 6578 c0 -13 -1 -536 -1 -1163 -1 -1035 2 -1220 17 -1308 10 -50
56 -189 76 -223 10 -19 19 -39 19 -45 0 -5 5 -15 10 -22 6 -7 29 -41 53 -77
23 -35 74 -96 112 -136 67 -68 191 -164 213 -164 6 0 12 -3 14 -7 3 -8 73 -43
83 -43 3 0 19 -7 36 -16 27 -13 91 -33 164 -50 33 -8 107 -16 155 -18 l45 -1
-1 1205 c0 663 -4 1225 -7 1250 -12 87 -16 106 -38 175 -48 155 -127 284 -248
405 -89 89 -153 136 -258 189 -119 61 -164 71 -310 71 -131 0 -133 0 -134 -22z"/>
<path d="M2119 5271 c-3 -162 1 -452 6 -461 3 -5 2 -10 -3 -10 -4 0 -7 -19 -4
-42 7 -81 8 -93 1 -113 -3 -11 -3 -29 1 -39 3 -11 3 -37 0 -58 -4 -21 -5 -38
-1 -38 3 0 5 -45 3 -100 l-3 -100 678 -2 c373 0 683 -2 688 -3 6 -1 42 -5 80
-9 39 -4 86 -11 105 -16 19 -5 47 -11 62 -14 15 -2 32 -7 38 -11 6 -4 22 -8
36 -11 68 -12 329 -134 347 -161 4 -7 13 -13 20 -13 11 0 74 -39 107 -67 8 -7
42 -33 75 -59 80 -62 220 -204 275 -279 25 -33 47 -62 50 -65 5 -4 36 -53 65
-102 111 -188 194 -427 222 -641 9 -68 10 -337 1 -407 -13 -104 -19 -135 -44
-238 -64 -261 -216 -523 -430 -738 -86 -87 -232 -203 -319 -253 -65 -38 -164
-91 -170 -91 -3 0 -31 -12 -62 -25 -32 -14 -64 -27 -73 -29 -8 -2 -22 -6 -30
-9 -24 -9 -85 -27 -111 -33 -13 -3 -33 -7 -44 -9 -77 -17 -98 -21 -208 -34
-98 -11 -306 -5 -432 14 -74 10 -272 62 -335 87 -69 27 -234 112 -250 128 -3
3 -17 11 -32 19 -15 8 -37 22 -47 33 -11 10 -24 18 -30 18 -5 0 -11 3 -13 8
-1 4 -25 25 -53 47 -133 104 -285 273 -372 411 -72 115 -170 331 -189 417 -1
4 -2 8 -4 10 -1 1 -3 9 -5 17 -1 8 -8 33 -13 55 -6 22 -13 56 -16 75 -3 19 -7
44 -10 56 -10 47 -19 186 -20 311 -1 72 -3 133 -6 136 -3 3 -45 8 -95 11 -89
6 -203 24 -280 46 -22 6 -47 13 -55 15 -8 2 -15 4 -15 5 0 1 -7 3 -15 5 -30 5
-176 69 -233 102 -33 18 -61 33 -63 33 -8 0 -158 113 -196 148 l-38 34 0 -33
c-7 -432 1 -891 16 -963 2 -11 8 -46 13 -76 5 -30 12 -66 15 -80 3 -14 8 -34
10 -45 34 -149 102 -341 182 -513 51 -108 154 -296 166 -300 4 -2 8 -8 8 -12
0 -12 62 -104 72 -108 4 -2 8 -10 8 -18 0 -8 4 -14 9 -14 5 0 12 -8 15 -17 4
-10 19 -32 34 -50 15 -18 41 -49 57 -70 105 -131 262 -288 385 -385 30 -23 57
-46 58 -50 2 -5 10 -8 17 -8 7 0 15 -3 17 -7 2 -5 30 -26 63 -48 81 -54 96
-63 125 -77 14 -7 27 -15 30 -18 22 -24 414 -191 480 -205 3 -1 37 -12 75 -24
39 -13 79 -25 90 -27 11 -2 38 -8 60 -14 22 -6 49 -13 60 -15 30 -8 183 -36
235 -43 63 -9 663 -9 730 1 82 11 164 26 230 42 3 1 21 5 40 9 219 50 551 189
745 314 11 6 27 15 35 19 8 4 17 9 20 12 3 3 41 30 85 60 44 30 89 63 100 72
11 10 49 42 85 71 128 103 346 336 430 458 13 19 27 37 30 40 4 3 37 54 74
113 72 115 145 252 190 357 15 36 35 80 43 99 8 18 16 39 17 45 1 6 17 56 34
111 18 55 37 114 42 130 17 56 61 290 64 342 2 28 6 55 8 60 19 37 14 500 -7
623 -2 14 -6 41 -9 60 -49 328 -166 656 -338 947 -28 48 -55 90 -60 91 -4 2
-8 8 -8 13 0 9 -118 180 -131 189 -3 3 -24 28 -44 55 -46 60 -284 299 -339
340 -22 17 -56 45 -75 62 -20 18 -41 33 -48 33 -6 0 -13 3 -15 8 -9 20 -236
164 -355 225 -79 41 -250 117 -273 122 -8 2 -53 18 -100 34 -47 17 -86 31 -87
31 -2 0 -4 0 -5 1 -2 0 -10 2 -18 4 -8 1 -44 11 -80 20 -36 10 -74 19 -85 21
-11 2 -56 11 -100 19 -44 8 -107 18 -140 21 -33 3 -71 8 -85 11 -14 3 -343 7
-732 8 l-708 2 -1 -36z"/>
</g>
</svg>
