<svg width="32" height="32" viewBox="0 0 32 32" fill="none" xmlns="http://www.w3.org/2000/svg">
<g clip-path="url(#clip0_1524_563)">
<path d="M15.8704 31.9942C11.4481 31.9233 7.55347 30.3088 4.41826 27.0238C1.30748 23.7649 -0.162641 19.8289 0.0142497 15.3303C0.182681 11.0494 1.84584 7.3854 4.94451 4.42978C8.21296 1.31342 12.1567 -0.164393 16.6684 0.0144213C20.9626 0.184775 24.6348 1.8562 27.5927 4.96757C30.6937 8.22929 32.164 12.1617 31.9854 16.6564C31.8156 20.9331 30.1515 24.5906 27.0594 27.5487C23.9765 30.4976 20.2579 31.9444 15.8704 31.9942ZM16.3148 1.70873C13.2522 1.73046 10.7021 2.45091 8.37428 3.92237C6.24178 5.27001 4.57996 7.06373 3.38903 9.28544C2.32441 11.2714 1.75471 13.4001 1.72029 15.6497C1.65857 19.5984 2.97833 23.0408 5.71957 25.8859C8.42158 28.691 11.7646 30.1651 15.6601 30.2561C19.6101 30.3484 23.0553 29.0048 25.9019 26.2655C28.711 23.5623 30.1863 20.2183 30.2748 16.3211C30.3645 12.3732 29.0182 8.93051 26.2755 6.08794C23.4814 3.19442 20.0226 1.7766 16.3148 1.70873Z" fill="#C3BBAF"/>
<path d="M16.3148 1.70873C20.0225 1.7766 23.4813 3.19443 26.2745 6.08814C29.0178 8.9307 30.3641 12.3733 30.2738 16.3213C30.1853 20.2185 28.71 23.5625 25.9009 26.2657C23.0553 29.005 19.6092 30.3486 15.6591 30.2563C11.7635 30.1653 8.42041 28.6912 5.71859 25.8861C2.97831 23.0405 1.65855 19.5988 1.72027 15.6499C1.75526 13.4003 2.32439 11.2714 3.38901 9.28564C4.57995 7.06373 6.24176 5.27001 8.37426 3.92237C10.7021 2.45091 13.2522 1.73046 16.3148 1.70873ZM10.9046 10.0149H10.7929C9.72895 10.0149 8.66504 10.0149 7.60113 10.0149C7.19005 10.0149 6.83877 10.2841 6.74321 10.6796C6.7116 10.8167 6.69611 10.9571 6.69706 11.0978C6.69706 11.7219 6.93952 12.2764 7.22543 12.8108C7.47923 13.2851 7.82955 13.6908 8.22006 14.0605C8.55513 14.377 8.89353 14.69 9.23526 14.9996C9.48848 15.2284 9.73171 15.4634 9.86976 15.7837C9.89098 15.8323 9.90248 15.8845 9.9036 15.9375C9.90533 17.6349 9.90091 19.3323 9.90879 21.0297C9.9077 21.3337 9.93577 21.637 9.99262 21.9357C10.4243 24.0949 12.2724 25.5987 14.478 25.5987C15.3817 25.5987 16.2853 25.6067 17.189 25.5944C17.5122 25.5914 17.8345 25.5598 18.1521 25.5C20.2069 25.1026 21.7559 23.2354 21.7668 21.1418C21.7755 19.3996 21.7684 17.6572 21.7717 15.915C21.7717 15.8425 21.7986 15.7656 21.8293 15.6987C21.9384 15.4659 22.1093 15.2817 22.2993 15.1109C22.6467 14.7983 22.9976 14.4887 23.3314 14.1617C23.5892 13.909 23.8401 13.6454 24.062 13.3622C24.3438 13.0051 24.5661 12.6049 24.7205 12.177C24.8703 11.7617 24.9868 11.3503 24.9455 10.8975C24.8972 10.3683 24.546 10.0147 24.0143 10.0145H21.172C21.172 9.59443 21.1802 9.18777 21.1702 8.7813C21.151 8.01221 20.7972 7.44058 20.1206 7.07353C19.7903 6.89434 19.4305 6.85761 19.0602 6.86203C17.9862 6.87261 17.1375 7.72034 17.1344 8.79457C17.1344 9.17239 17.1344 9.5504 17.1344 9.92898C17.1344 9.95667 17.1317 9.98416 17.1302 10.0101H14.9421C14.9421 9.58847 14.9467 9.17239 14.9408 8.7565C14.9338 8.25505 14.7546 7.81878 14.4072 7.4577C13.8771 6.90645 13.2113 6.77186 12.4908 6.89895C11.5375 7.06719 10.9052 7.8532 10.9046 8.82033C10.9044 9.21257 10.9046 9.60654 10.9046 10.0144V10.0149Z" fill="#F6EFE5"/>
<path d="M10.9046 10.0143C10.9046 9.60654 10.9046 9.21257 10.9046 8.8188C10.9046 7.85166 11.5376 7.06565 12.4909 6.89741C13.2113 6.77032 13.8772 6.90491 14.4073 7.45616C14.7547 7.81725 14.9339 8.25351 14.9408 8.75496C14.9468 9.17085 14.9422 9.58693 14.9422 10.0086H17.1298C17.1314 9.98262 17.1341 9.95513 17.1341 9.92744C17.1341 9.54962 17.1341 9.17162 17.1341 8.79303C17.137 7.7188 17.9858 6.8703 19.0599 6.86049C19.4302 6.85665 19.7905 6.89337 20.1203 7.07199C20.7969 7.43904 21.1508 8.01029 21.1699 8.77976C21.1799 9.18604 21.1716 9.59289 21.1716 10.013H24.0149C24.5466 10.013 24.8979 10.3668 24.9461 10.8959C24.9875 11.3487 24.8709 11.7611 24.7212 12.1755C24.5669 12.6042 24.3445 13.0052 24.0624 13.363C23.8396 13.6462 23.5887 13.9098 23.3318 14.1624C22.998 14.4893 22.6471 14.7991 22.2997 15.1117C22.1097 15.2824 21.9388 15.4666 21.8298 15.6995C21.7984 15.7664 21.7721 15.8433 21.7721 15.9158C21.7688 17.658 21.7759 19.4003 21.7673 21.1425C21.7571 23.2362 20.2081 25.1034 18.1525 25.5008C17.8349 25.5606 17.5126 25.5922 17.1894 25.5952C16.2858 25.6075 15.3821 25.5996 14.4784 25.5994C12.2728 25.5994 10.4247 24.0957 9.99305 21.9364C9.9362 21.6378 9.90812 21.3344 9.90922 21.0304C9.90134 19.3331 9.90576 17.6357 9.90403 15.9383C9.9029 15.8853 9.89141 15.833 9.87019 15.7845C9.73233 15.4641 9.4891 15.2292 9.23569 15.0004C8.8937 14.6912 8.5553 14.3782 8.22048 14.0613C7.82998 13.6923 7.47966 13.2866 7.22586 12.8115C6.93995 12.2772 6.6973 11.7227 6.69749 11.0986C6.69654 10.9579 6.71203 10.8175 6.74364 10.6804C6.83977 10.2847 7.19048 10.0163 7.60156 10.0157C8.66547 10.0143 9.72938 10.0143 10.7933 10.0157L10.9046 10.0143ZM14.0475 11.9359H10.5695C10.3459 11.9359 10.1538 12.0861 10.1249 12.3051C10.1062 12.4318 10.1081 12.5608 10.1303 12.6869C10.2072 13.0761 10.3763 13.4285 10.6474 13.7177C10.9185 14.0069 11.2134 14.2642 11.4887 14.5445C11.6968 14.756 11.8289 15.0077 11.8285 15.3178C11.8266 17.2199 11.8266 19.1221 11.8285 21.0243C11.827 21.1588 11.8353 21.2932 11.8535 21.4265C12.0458 22.7324 13.1417 23.6761 14.4617 23.6761C15.3684 23.6761 16.2752 23.6758 17.1819 23.6752C17.3165 23.6764 17.451 23.6687 17.5846 23.6521C18.2104 23.566 18.7841 23.2565 19.1995 22.7806C19.615 22.3046 19.8443 21.6945 19.8451 21.0627C19.8451 20.7457 19.8424 20.4282 19.8472 20.1116C19.8472 20.0379 19.8265 20.0077 19.7561 19.986C19.0876 19.7812 18.4484 19.4909 17.8541 19.1225C16.489 18.2746 15.4432 17.1386 14.7653 15.6749C14.4401 14.9727 14.2171 14.2388 14.1388 13.4689C14.0875 12.9644 14.0769 12.4551 14.0475 11.9359ZM19.7128 17.0354C19.7149 16.8648 19.6663 16.6975 19.5732 16.5546C19.4801 16.4116 19.3467 16.2996 19.1898 16.2325C19.033 16.1654 18.8598 16.1464 18.6921 16.1778C18.5245 16.2093 18.3699 16.2897 18.248 16.409C18.1261 16.5284 18.0424 16.6812 18.0073 16.8481C17.9723 17.015 17.9876 17.1886 18.0513 17.3469C18.115 17.5051 18.2242 17.6409 18.3651 17.737C18.506 17.8332 18.6722 17.8854 18.8428 17.887C18.9559 17.8885 19.0682 17.8676 19.1733 17.8256C19.2783 17.7836 19.374 17.7212 19.4549 17.6421C19.5357 17.5629 19.6001 17.4686 19.6444 17.3645C19.6887 17.2604 19.7119 17.1485 19.7128 17.0354ZM13.5964 10.012C13.5964 9.64864 13.5789 9.29256 13.6009 8.93916C13.6301 8.46732 13.3573 8.17353 12.8612 8.20371C12.4989 8.22583 12.2519 8.45155 12.2507 8.8136C12.2507 9.18815 12.2507 9.56347 12.2507 9.93706C12.2507 9.96147 12.2538 9.98589 12.2555 10.012H13.5964ZM19.8245 10.012C19.8245 9.58096 19.8317 9.15585 19.8217 8.73131C19.8161 8.49232 19.6236 8.27832 19.389 8.22967C19.29 8.20929 19.1856 8.21044 19.0839 8.21044C18.7267 8.21044 18.4819 8.45636 18.4804 8.81341C18.4804 9.08259 18.4804 9.35178 18.4804 9.6198V10.0128L19.8245 10.012Z" fill="black"/>
<path d="M14.0475 11.9359C14.0769 12.4551 14.0875 12.9644 14.139 13.4697C14.2172 14.2388 14.4403 14.9735 14.7654 15.6756C15.4434 17.1394 16.4893 18.2754 17.8543 19.1233C18.4485 19.4917 19.0878 19.7819 19.7562 19.9868C19.8266 20.0085 19.8483 20.0387 19.8474 20.1123C19.8426 20.4294 19.846 20.7468 19.8453 21.0635C19.8445 21.6953 19.6152 22.3054 19.1997 22.7813C18.7842 23.2572 18.2106 23.5668 17.5847 23.6529C17.4512 23.6695 17.3167 23.6772 17.1821 23.6759C16.2753 23.6778 15.3686 23.6782 14.4618 23.6769C13.1411 23.6769 12.0457 22.733 11.8536 21.4273C11.8355 21.294 11.8271 21.1596 11.8286 21.0251C11.8271 19.1228 11.8271 17.2207 11.8286 15.3186C11.8286 15.0084 11.6969 14.7575 11.4889 14.5453C11.2136 14.2644 10.9163 14.0046 10.6475 13.7185C10.3787 13.4324 10.2078 13.0769 10.1305 12.6877C10.1082 12.5615 10.1064 12.4326 10.1251 12.3059C10.1539 12.0869 10.346 11.9367 10.5696 11.9367H14.0475V11.9359ZM14.3864 17.0285C14.3872 16.8578 14.3372 16.6908 14.243 16.5486C14.1488 16.4064 14.0144 16.2953 13.857 16.2295C13.6996 16.1636 13.5262 16.1459 13.3588 16.1787C13.1913 16.2115 13.0374 16.2932 12.9164 16.4135C12.7954 16.5338 12.7128 16.6873 12.6791 16.8546C12.6454 17.0218 12.6621 17.1953 12.7271 17.3531C12.7921 17.5109 12.9024 17.6458 13.0441 17.7408C13.1858 17.8359 13.3525 17.8867 13.5231 17.887C13.6363 17.8876 13.7484 17.8659 13.8532 17.823C13.9579 17.7801 14.0531 17.717 14.1333 17.6372C14.2135 17.5574 14.2772 17.4626 14.3206 17.3581C14.3641 17.2536 14.3864 17.1416 14.3864 17.0285Z" fill="#F6EFE5"/>
<path d="M19.7128 17.0354C19.7108 17.206 19.6582 17.3721 19.5618 17.5128C19.4653 17.6535 19.3292 17.7624 19.1708 17.8257C19.0124 17.889 18.8387 17.9039 18.6719 17.8685C18.505 17.833 18.3524 17.7489 18.2334 17.6266C18.1144 17.5044 18.0343 17.3496 18.0033 17.1819C17.9723 17.0141 17.9918 16.8409 18.0593 16.6843C18.1268 16.5276 18.2393 16.3945 18.3825 16.3017C18.5257 16.209 18.6932 16.1609 18.8637 16.1634C18.9768 16.1647 19.0886 16.1882 19.1925 16.2328C19.2965 16.2773 19.3906 16.3419 19.4695 16.423C19.5484 16.504 19.6105 16.5998 19.6523 16.7049C19.694 16.81 19.7146 16.9223 19.7128 17.0354Z" fill="#FBFBFB"/>
<path d="M13.5964 10.012H12.2555C12.2537 9.98589 12.2507 9.96148 12.2507 9.93706C12.2507 9.5627 12.2507 9.18719 12.2507 8.81361C12.2518 8.45156 12.4989 8.22583 12.8611 8.20372C13.3572 8.17353 13.6302 8.46732 13.6008 8.93916C13.5789 9.29256 13.5964 9.64865 13.5964 10.012Z" fill="#F6EFE5"/>
<path d="M19.8245 10.0113H18.4802V9.61827C18.4802 9.34908 18.4802 9.0799 18.4802 8.81187C18.4817 8.45482 18.7265 8.2091 19.0837 8.2089C19.1854 8.2089 19.2898 8.2089 19.3888 8.22813C19.6234 8.27678 19.8159 8.49078 19.8215 8.72977C19.8317 9.15508 19.8245 9.5802 19.8245 10.0113Z" fill="#F6EFE5"/>
<path d="M14.3865 17.0285C14.3859 17.1991 14.3346 17.3657 14.2392 17.5072C14.1439 17.6487 14.0086 17.7588 13.8507 17.8234C13.6927 17.888 13.5192 17.9042 13.352 17.8701C13.1848 17.836 13.0314 17.753 12.9114 17.6317C12.7914 17.5104 12.7101 17.3562 12.6778 17.1887C12.6455 17.0211 12.6636 16.8477 12.7299 16.6905C12.7962 16.5332 12.9076 16.3992 13.0501 16.3053C13.1927 16.2115 13.3598 16.162 13.5305 16.1632C13.6436 16.1636 13.7555 16.1863 13.8598 16.23C13.9641 16.2737 14.0587 16.3376 14.1382 16.418C14.2178 16.4984 14.2806 16.5937 14.3232 16.6985C14.3658 16.8032 14.3873 16.9154 14.3865 17.0285Z" fill="#030303"/>
</g>
<defs>
<clipPath id="clip0_1524_563">
<rect width="32" height="31.9944" fill="white"/>
</clipPath>
</defs>
</svg>
