<svg width="32" height="32" viewBox="0 0 32 32" fill="none" xmlns="http://www.w3.org/2000/svg">
<path d="M16 0C7.168 0 0 7.168 0 16C0 24.832 7.168 32 16 32C24.832 32 32 24.832 32 16C32 7.168 24.832 0 16 0ZM11.664 22.864L5.92 17.12C5.296 16.496 5.296 15.488 5.92 14.864C6.544 14.24 7.552 14.24 8.176 14.864L12.8 19.472L23.808 8.464C24.432 7.84 25.44 7.84 26.064 8.464C26.688 9.088 26.688 10.096 26.064 10.72L13.92 22.864C13.312 23.488 12.288 23.488 11.664 22.864Z" fill="url(#paint0_linear_868_1126)"/>
<defs>
<linearGradient id="paint0_linear_868_1126" x1="-0.0914288" y1="0.0914287" x2="31.9086" y2="32.0914" gradientUnits="userSpaceOnUse">
<stop stop-color="#7AE7AC"/>
<stop offset="1" stop-color="#1E9619"/>
</linearGradient>
</defs>
</svg>
