<svg width="32" height="32" viewBox="0 0 32 32" fill="none" xmlns="http://www.w3.org/2000/svg">
<mask id="mask0_1419_563" style="mask-type:alpha" maskUnits="userSpaceOnUse" x="0" y="0" width="32" height="32">
<circle cx="16" cy="16" r="16" fill="#D9D9D9"/>
</mask>
<g mask="url(#mask0_1419_563)">
<rect width="35.6667" height="35.6667" fill="#FFF6FB"/>
</g>
<g clip-path="url(#clip0_1419_563)">
<path d="M14.827 4.58675C15.3917 4.28912 16.2509 4.28912 16.8156 4.58675L22.5779 7.62385C22.918 7.80309 23.1048 8.07021 23.1383 8.34595H23.1438V23.6119C23.1363 23.9127 22.9477 24.2114 22.5779 24.4063L16.8156 27.4435C16.2509 27.7411 15.3917 27.7411 14.827 27.4435L9.06471 24.4063C8.69645 24.2123 8.51972 23.9114 8.51097 23.6119C8.51007 23.5811 8.50999 23.5558 8.51094 23.535L8.51097 8.44873C8.51011 8.42751 8.5101 8.40638 8.51095 8.38534L8.51097 8.34595H8.51354C8.53914 8.06716 8.71744 7.80687 9.06471 7.62385L14.827 4.58675ZM22.2368 16.8627L16.8156 19.72C16.2509 20.0176 15.3917 20.0176 14.827 19.72L9.41793 16.869V23.5818L14.827 26.4176C15.1466 26.5881 15.479 26.7541 15.8026 26.7614L15.8213 26.7616C16.1443 26.7627 16.4579 26.599 16.7759 26.444L22.2368 23.5574V16.8627ZM7.57374 23.28C7.57374 23.8649 7.64186 24.2493 7.77712 24.5201C7.88922 24.7446 8.05743 24.9162 8.36456 25.1249L8.38209 25.1368C8.4495 25.1821 8.52375 25.2297 8.61413 25.2855L8.72072 25.3506L9.04801 25.5477L8.57858 26.3222L8.21225 26.1014L8.15068 26.0636C8.04476 25.9984 7.95697 25.9424 7.87508 25.8872C6.99974 25.2984 6.67329 24.6563 6.66685 23.3207L6.66675 23.28H7.57374ZM15.3678 12.771C15.3258 12.7854 15.2865 12.802 15.2506 12.8209L9.4883 15.858C9.48225 15.8612 9.47649 15.8644 9.471 15.8675L9.46612 15.8703L9.47517 15.8755L9.4883 15.8826L15.2506 18.9197C15.2865 18.9386 15.3258 18.9552 15.3678 18.9696V12.771ZM16.2748 12.771V18.9696C16.3168 18.9552 16.3562 18.9386 16.3921 18.9197L22.1543 15.8826C22.1604 15.8794 22.1662 15.8762 22.1716 15.8731L22.1765 15.8703L22.1675 15.8651L22.1543 15.858L16.3921 12.8209C16.3562 12.802 16.3168 12.7854 16.2748 12.771ZM22.2368 9.42885L17.0676 12.1534L22.2368 14.8779V9.42885ZM9.41793 9.43522V14.8715L14.575 12.1534L9.41793 9.43522ZM16.3921 5.38707C16.0924 5.22913 15.5502 5.22913 15.2506 5.38707L9.4883 8.42416C9.48225 8.42736 9.47649 8.4305 9.471 8.43364L9.46612 8.43644L9.47517 8.44161L9.4883 8.44873L15.2506 11.4858C15.5502 11.6438 16.0924 11.6438 16.3921 11.4858L22.1543 8.44873C22.1604 8.44553 22.1662 8.44239 22.1716 8.43928L22.1765 8.43644L22.1675 8.43128L22.1543 8.42416L16.3921 5.38707ZM23.0882 5.72012L23.4546 5.9409L23.5161 5.97862C23.6221 6.04387 23.7099 6.09992 23.7917 6.15501C24.6671 6.74391 24.9935 7.38596 25 8.72161L25.0001 8.7623H24.0931C24.0931 8.17736 24.025 7.79295 23.8897 7.5221C23.7776 7.29763 23.6094 7.12608 23.3023 6.91734L23.2847 6.90548C23.2173 6.86014 23.1431 6.81263 23.0527 6.7568L22.9461 6.69166L22.6188 6.49456L23.0882 5.72012Z" fill="#1969FF"/>
</g>
<defs>
<clipPath id="clip0_1419_563">
<rect width="18.3333" height="23.3333" fill="white" transform="translate(6.66675 4.33334)"/>
</clipPath>
</defs>
</svg>
