<svg viewBox="0 0 32 32" fill="none" xmlns="http://www.w3.org/2000/svg">
  <circle cx="16" cy="16" r="16" fill="#FF0420"/>
  <path d="M 11.337 20.253 C 10.384 20.253 9.603 20.028 8.995 19.58 C 8.394 19.124 8.094 18.475 8.094 17.635 C 8.094 17.458 8.114 17.242 8.154 16.986 C 8.258 16.41 8.406 15.717 8.599 14.909 C 9.143 12.707 10.548 11.606 12.814 11.606 C 13.43 11.606 13.982 11.71 14.471 11.918 C 14.959 12.119 15.343 12.423 15.624 12.831 C 15.904 13.231 16.044 13.712 16.044 14.272 C 16.044 14.44 16.024 14.652 15.984 14.909 C 15.864 15.621 15.72 16.314 15.552 16.986 C 15.271 18.083 14.787 18.904 14.099 19.448 C 13.41 19.984 12.489 20.253 11.337 20.253 Z M 11.505 18.523 C 11.953 18.523 12.333 18.391 12.646 18.127 C 12.966 17.863 13.194 17.458 13.33 16.914 C 13.514 16.162 13.654 15.505 13.75 14.945 C 13.782 14.777 13.798 14.604 13.798 14.428 C 13.798 13.7 13.418 13.335 12.658 13.335 C 12.209 13.335 11.825 13.468 11.505 13.732 C 11.192 13.996 10.968 14.4 10.832 14.945 C 10.688 15.481 10.544 16.138 10.4 16.914 C 10.368 17.074 10.352 17.242 10.352 17.418 C 10.352 18.155 10.736 18.523 11.505 18.523 Z" fill="white"/>
  <path d="M 16.595 20.132 C 16.507 20.132 16.439 20.104 16.391 20.048 C 16.351 19.984 16.339 19.912 16.355 19.832 L 18.012 12.026 C 18.028 11.938 18.072 11.866 18.145 11.81 C 18.217 11.754 18.293 11.726 18.373 11.726 L 21.567 11.726 C 22.456 11.726 23.168 11.91 23.705 12.279 C 24.249 12.647 24.521 13.179 24.521 13.876 C 24.521 14.076 24.497 14.284 24.449 14.5 C 24.249 15.421 23.845 16.102 23.236 16.542 C 22.636 16.982 21.811 17.202 20.762 17.202 L 19.141 17.202 L 18.589 19.832 C 18.573 19.92 18.529 19.992 18.457 20.048 C 18.385 20.104 18.309 20.132 18.229 20.132 L 16.595 20.132 Z M 20.847 15.545 C 21.183 15.545 21.475 15.453 21.723 15.269 C 21.979 15.085 22.147 14.821 22.228 14.476 C 22.252 14.34 22.264 14.22 22.264 14.116 C 22.264 13.884 22.196 13.708 22.059 13.588 C 21.923 13.46 21.691 13.396 21.363 13.396 L 19.922 13.396 L 19.465 15.545 L 20.847 15.545 Z" fill="white"/>
</svg>
