<svg width="32" height="32" viewBox="0 0 32 32" fill="none" xmlns="http://www.w3.org/2000/svg">
<circle cx="16" cy="16" r="16" fill="#121620"/>
<path d="M28.7385 11.5078L19.2662 28.0106C18.9797 28.5083 18.5683 28.9215 18.073 29.2088C17.5777 29.496 17.016 29.6472 16.4443 29.6472C15.8726 29.6472 15.3109 29.496 14.8157 29.2088C14.3203 28.9215 13.9088 28.5083 13.6224 28.0106L11.9619 25.1198C11.9566 25.1126 11.9543 25.1037 11.9556 25.0948C11.9568 25.0859 11.9615 25.0779 11.9686 25.0725C11.9758 25.0671 11.9847 25.0648 11.9936 25.066C12.0024 25.0673 12.0104 25.0721 12.0157 25.0792C12.3119 25.3734 12.6711 25.5955 13.0657 25.7285C13.4604 25.8616 13.8801 25.9021 14.2927 25.8469C14.7053 25.7918 15.0999 25.6425 15.4463 25.4104C15.7927 25.1783 16.0818 24.8696 16.2913 24.5079L24.2208 10.6794C24.4299 10.3143 24.5526 9.90574 24.5794 9.4853C24.6063 9.06485 24.5366 8.64382 24.3757 8.25482C24.2148 7.86581 23.9671 7.51927 23.6517 7.24202C23.3363 6.96477 22.9618 6.76426 22.557 6.656C22.5481 6.656 22.5395 6.65244 22.5332 6.6461C22.5269 6.63976 22.5234 6.63116 22.5234 6.62219C22.5234 6.61322 22.5269 6.60462 22.5332 6.59828C22.5395 6.59194 22.5481 6.58838 22.557 6.58838H25.9183C26.4904 6.589 27.0522 6.74099 27.5474 7.02909C28.0425 7.31719 28.4536 7.73125 28.7394 8.22971C29.0251 8.72817 29.1755 9.29347 29.1753 9.86886C29.1752 10.4443 29.0245 11.0095 28.7385 11.5078ZM17.525 6.58838H14.2409C14.2342 6.5906 14.2284 6.59491 14.2242 6.60067C14.22 6.60644 14.2178 6.61338 14.2178 6.6205C14.2178 6.62762 14.22 6.63456 14.2242 6.64033C14.2284 6.64609 14.2342 6.6504 14.2409 6.65262C14.4621 6.73856 14.6622 6.87151 14.8277 7.04241C14.9931 7.21331 15.1198 7.41811 15.1993 7.64282C15.2788 7.86753 15.3091 8.10685 15.2881 8.34442C15.2671 8.58199 15.1955 8.81221 15.0779 9.01934L10.2913 17.3468C10.1677 17.558 9.99905 17.739 9.79759 17.8768C9.59613 18.0147 9.36682 18.106 9.12613 18.1441C8.88545 18.1822 8.63935 18.1663 8.40551 18.0975C8.17167 18.0286 7.9559 17.9085 7.77367 17.7458C7.76832 17.7386 7.76036 17.7338 7.75153 17.7326C7.7427 17.7313 7.73374 17.7336 7.72661 17.739C7.71948 17.7444 7.71476 17.7524 7.7135 17.7613C7.71224 17.7702 7.71454 17.7792 7.71989 17.7863L9.40057 20.7211C9.58927 21.0504 9.8609 21.324 10.1881 21.5141C10.5153 21.7043 10.8866 21.8044 11.2644 21.8044C11.6423 21.8044 12.0136 21.7043 12.3408 21.5141C12.668 21.324 12.9396 21.0504 13.1283 20.7211L19.3906 9.83417C19.5795 9.50504 19.6788 9.13166 19.6788 8.75161C19.6786 8.37156 19.579 7.99824 19.3899 7.66922C19.2008 7.3402 18.9289 7.06708 18.6015 6.87734C18.2741 6.6876 17.9028 6.58794 17.525 6.58838ZM6.1266 6.58838C5.56616 6.58838 5.01831 6.75554 4.55232 7.06873C4.08633 7.38191 3.72314 7.82705 3.50867 8.34786C3.2942 8.86867 3.23808 9.44175 3.34742 9.99464C3.45675 10.5475 3.72663 11.0554 4.12292 11.454C4.51921 11.8526 5.02412 12.1241 5.57379 12.234C6.12346 12.344 6.69321 12.2876 7.21098 12.0718C7.72876 11.8561 8.17131 11.4908 8.48268 11.0221C8.79404 10.5534 8.96023 10.0023 8.96023 9.43859C8.96067 9.06417 8.88768 8.69334 8.74543 8.34734C8.60319 8.00133 8.39448 7.68695 8.13126 7.4222C7.86805 7.15744 7.5555 6.94751 7.2115 6.80443C6.86751 6.66135 6.49884 6.58794 6.1266 6.58838Z" fill="url(#paint0_linear_1331_203)"/>
<defs>
<linearGradient id="paint0_linear_1331_203" x1="28.8442" y1="24.8359" x2="-0.859227" y2="4.78194" gradientUnits="userSpaceOnUse">
<stop stop-color="#5433FF"/>
<stop offset="0.5" stop-color="#20BDFF"/>
<stop offset="1" stop-color="#5CFFA2"/>
</linearGradient>
</defs>
</svg>
