<svg xmlns="http://www.w3.org/2000/svg" version="1.1" xmlns:xlink="http://www.w3.org/1999/xlink" xmlns:svgjs="http://svgjs.com/svgjs" width="170" height="170"><svg width="170" height="170" viewBox="0 0 170 170" fill="none" xmlns="http://www.w3.org/2000/svg">
<path id="belly" d="M58.0002 62.4937H86.3634C91.3629 62.4937 96.3069 63.6142 100.789 65.8312C118.028 74.3631 126.112 92.6764 120.968 110.924C120.292 113.328 119.326 115.646 118.102 117.824C109.096 133.836 91.2669 141.084 73.5866 135.857C71.5541 135.255 69.5906 134.441 67.7291 133.428C54.8637 126.423 47.5003 113.786 47.5003 100.014V95.6644C39.0734 95.6644 31.1294 92.5279 25.0005 86.8025V103.677C25.0005 120.576 37.0004 143.538 56.1072 152.958C83.269 166.348 110.482 159.42 127.426 142.464C138.284 131.601 144.999 116.592 144.999 100.016C144.999 83.4395 138.284 68.4306 127.426 57.5677C116.569 46.7033 101.569 39.9834 85 39.9834H57.9327L58.0002 62.4952V62.4937Z" fill="#160033"></path>
<path id="dotted" d="M47.5003 32.6527V85.1612C35.0744 85.1612 25.0005 75.0858 25.0005 62.6584V10.1499C31.2134 10.1499 36.8384 12.6684 40.9093 16.7423C44.9818 20.8133 47.5003 26.4398 47.5003 32.6542V32.6527Z" fill="#791AFF"></path>
<path id="dotted1" d="M47.5003 32.5478V85.1613C35.0744 85.1613 25.0005 75.0649 25.0005 62.6135V10C31.2134 10 36.8384 12.5245 40.9093 16.6044C44.9818 20.6844 47.5003 26.3214 47.5003 32.5478Z" fill="#791AFF"></path>
</svg><style>@media (prefers-color-scheme: light) { :root { filter: none; } #belly { fill: #160033 } #dotted { fill: #791AFF } #dotted1 { fill: #791AFF } }
@media (prefers-color-scheme: dark) { :root { filter: none; } #belly { fill: #FBFAFF } #dotted { fill: #07F8BD } #dotted1 { fill: #07F8BD } }
</style></svg>
