<?xml version="1.0" standalone="no"?>
<!DOCTYPE svg PUBLIC "-//W3C//DTD SVG 20010904//EN"
 "http://www.w3.org/TR/2001/REC-SVG-20010904/DTD/svg10.dtd">
<svg version="1.0" xmlns="http://www.w3.org/2000/svg"
 width="700.000000pt" height="700.000000pt" viewBox="0 0 700.000000 700.000000"
 preserveAspectRatio="xMidYMid meet">
<metadata>
Created by potrace 1.14, written by Peter Selinger 2001-2017
</metadata>
<g transform="translate(0.000000,700.000000) scale(0.100000,-0.100000)"
fill="#000000" stroke="none">
<path d="M1032 5423 l3 -1168 28 -88 c48 -154 117 -274 221 -385 158 -167 366
-267 603 -288 l71 -6 -2 1154 c-3 1150 -3 1153 -24 1237 -103 391 -432 672
-830 706 l-73 7 3 -1169z"/>
<path d="M2405 5352 c-20 -3 -20 -8 -18 -459 1 -251 5 -458 8 -461 3 -3 299
-6 657 -7 555 -2 666 -5 740 -19 522 -98 986 -502 1166 -1017 131 -374 109
-818 -59 -1164 -83 -171 -166 -289 -294 -419 -131 -134 -236 -212 -390 -291
-185 -95 -316 -138 -500 -161 -22 -3 -46 -7 -54 -10 -17 -6 -288 -6 -321 0
-14 3 -43 7 -65 10 -274 35 -528 147 -755 335 -317 261 -522 645 -556 1041 -4
47 -8 140 -8 207 l-1 123 -30 1 c-264 10 -498 83 -718 225 -40 26 -74 50 -77
53 -3 4 -27 24 -53 46 l-49 39 5 -450 c4 -360 8 -466 21 -534 43 -223 130
-477 232 -677 62 -120 167 -295 189 -313 8 -7 15 -17 15 -22 0 -21 161 -211
274 -324 226 -225 433 -362 736 -487 156 -65 424 -144 545 -162 59 -8 98 -15
115 -20 67 -18 428 -26 575 -12 229 21 461 77 692 168 86 34 252 115 311 153
23 14 44 26 46 26 10 0 214 145 281 199 157 127 352 340 477 521 192 280 347
664 393 980 3 19 7 44 10 55 20 97 28 483 12 615 -56 482 -220 885 -516 1270
-77 100 -284 310 -391 397 -195 157 -498 327 -730 408 -151 53 -380 106 -520
120 -19 2 -64 7 -99 11 -60 6 -1252 12 -1296 6z"/>
</g>
</svg>
