<svg width="200" viewBox="0 0 1387 191" fill="none" xmlns="http://www.w3.org/2000/svg">
<path d="M12 156.27C43.2949 156.27 51.1186 27.1782 90.2371 27.1782C125.444 27.1782 121.532 148.446 164.562 148.446C207.593 148.446 207.593 27.1782 250.623 27.1782C293.654 27.1782 285.83 156.27 332.772 156.27" stroke="#3076F6" stroke-width="23.4711" stroke-linecap="square" stroke-linejoin="round" fill="none" />
<path d="M469.102 82.3672V151H449.914V64.8507H467.988L469.102 82.3672ZM465.997 104.741L459.468 104.661C459.468 98.7159 460.212 93.2221 461.698 88.1795C463.184 83.1368 465.36 78.7577 468.227 75.0421C471.093 71.2734 474.649 68.3805 478.896 66.3635C483.195 64.2933 488.158 63.2583 493.785 63.2583C497.713 63.2583 501.296 63.8422 504.534 65.0099C507.825 66.1246 510.664 67.9028 513.053 70.3445C515.495 72.7862 517.352 75.9179 518.626 79.7397C519.953 83.5615 520.617 88.1795 520.617 93.5937V151H501.428V95.2657C501.428 91.0724 500.791 87.7814 499.517 85.3928C498.297 83.0041 496.518 81.3056 494.183 80.2971C491.9 79.2354 489.167 78.7046 485.982 78.7046C482.373 78.7046 479.294 79.3947 476.746 80.7748C474.251 82.1549 472.208 84.0392 470.615 86.4278C469.023 88.8164 467.855 91.5766 467.112 94.7084C466.369 97.8401 465.997 101.184 465.997 104.741ZM519.423 99.6448L510.425 101.635C510.425 96.4335 511.142 91.5235 512.575 86.9055C514.061 82.2345 516.211 78.1473 519.024 74.644C521.891 71.0876 525.421 68.3009 529.614 66.2839C533.807 64.2668 538.611 63.2583 544.025 63.2583C548.431 63.2583 552.359 63.8687 555.809 65.0895C559.312 66.2573 562.285 68.1151 564.727 70.663C567.168 73.2108 569.026 76.5284 570.3 80.6155C571.574 84.6496 572.211 89.533 572.211 95.2657V151H552.943V95.1861C552.943 90.8335 552.306 87.4629 551.032 85.0743C549.811 82.6857 548.059 81.0402 545.777 80.1378C543.495 79.1824 540.761 78.7046 537.576 78.7046C534.604 78.7046 531.976 79.262 529.694 80.3767C527.464 81.4383 525.58 82.9511 524.041 84.915C522.501 86.8259 521.333 89.0288 520.537 91.5235C519.794 94.0183 519.423 96.7254 519.423 99.6448ZM629.936 152.592C623.566 152.592 617.807 151.557 612.658 149.487C607.562 147.364 603.21 144.418 599.6 140.649C596.044 136.881 593.31 132.448 591.399 127.353C589.489 122.257 588.533 116.763 588.533 110.871V107.686C588.533 100.945 589.515 94.8411 591.479 89.3738C593.443 83.9065 596.177 79.2354 599.68 75.3606C603.183 71.4326 607.324 68.4336 612.101 66.3635C616.878 64.2933 622.053 63.2583 627.627 63.2583C633.784 63.2583 639.172 64.2933 643.79 66.3635C648.408 68.4336 652.229 71.353 655.255 75.1217C658.334 78.8373 660.616 83.2695 662.102 88.4183C663.642 93.5671 664.411 99.2467 664.411 105.457V113.658H597.849V99.8837H645.462V98.3709C645.356 94.9207 644.666 91.6828 643.392 88.6572C642.171 85.6316 640.286 83.1899 637.739 81.3321C635.191 79.4743 631.794 78.5454 627.547 78.5454C624.362 78.5454 621.523 79.2354 619.028 80.6155C616.586 81.9425 614.542 83.88 612.897 86.4278C611.251 88.9757 609.978 92.0543 609.075 95.6638C608.226 99.2202 607.801 103.228 607.801 107.686V110.871C607.801 114.64 608.306 118.143 609.314 121.381C610.376 124.566 611.915 127.353 613.932 129.741C615.949 132.13 618.391 134.014 621.257 135.394C624.123 136.721 627.388 137.385 631.05 137.385C635.668 137.385 639.782 136.456 643.392 134.598C647.001 132.74 650.133 130.113 652.787 126.716L662.899 136.509C661.041 139.216 658.626 141.817 655.653 144.312C652.681 146.754 649.045 148.744 644.745 150.283C640.499 151.823 635.562 152.592 629.936 152.592ZM727.949 133.722V92.6382C727.949 89.5596 727.391 86.9055 726.276 84.6762C725.162 82.4468 723.463 80.7217 721.181 79.5008C718.951 78.28 716.138 77.6696 712.741 77.6696C709.609 77.6696 706.902 78.2004 704.62 79.262C702.337 80.3236 700.559 81.7568 699.285 83.5615C698.011 85.3662 697.374 87.4098 697.374 89.6923H678.265C678.265 86.2951 679.088 83.0041 680.734 79.8193C682.379 76.6345 684.768 73.7947 687.899 71.2999C691.031 68.8052 694.773 66.8412 699.126 65.408C703.478 63.9749 708.362 63.2583 713.776 63.2583C720.252 63.2583 725.985 64.3464 730.974 66.5227C736.017 68.699 739.971 71.99 742.838 76.3957C745.757 80.7482 747.217 86.2155 747.217 92.7975V131.095C747.217 135.023 747.482 138.553 748.013 141.684C748.597 144.763 749.419 147.444 750.481 149.726V151H730.815C729.912 148.93 729.196 146.302 728.665 143.118C728.187 139.88 727.949 136.748 727.949 133.722ZM730.735 98.6098L730.894 110.473H717.12C713.564 110.473 710.432 110.818 707.725 111.508C705.018 112.145 702.762 113.101 700.957 114.375C699.152 115.649 697.799 117.188 696.897 118.993C695.994 120.797 695.543 122.841 695.543 125.123C695.543 127.406 696.074 129.502 697.135 131.413C698.197 133.271 699.736 134.731 701.753 135.792C703.824 136.854 706.318 137.385 709.238 137.385C713.166 137.385 716.589 136.589 719.509 134.996C722.481 133.351 724.817 131.36 726.515 129.025C728.214 126.636 729.116 124.38 729.222 122.257L735.433 130.776C734.796 132.953 733.708 135.288 732.168 137.783C730.629 140.278 728.612 142.666 726.117 144.949C723.676 147.178 720.73 149.009 717.279 150.443C713.882 151.876 709.954 152.592 705.496 152.592C699.869 152.592 694.853 151.478 690.447 149.248C686.042 146.966 682.591 143.914 680.097 140.092C677.602 136.217 676.354 131.838 676.354 126.955C676.354 122.39 677.204 118.356 678.902 114.852C680.654 111.296 683.202 108.323 686.546 105.935C689.943 103.546 694.083 101.741 698.967 100.521C703.85 99.2467 709.423 98.6098 715.687 98.6098H730.735ZM786.31 83.243V151H767.122V64.8507H785.196L786.31 83.243ZM782.887 104.741L776.676 104.661C776.729 98.5567 777.579 92.9567 779.224 87.861C780.923 82.7653 783.258 78.3862 786.231 74.7236C789.256 71.0611 792.866 68.2478 797.059 66.2839C801.252 64.2668 805.923 63.2583 811.072 63.2583C815.213 63.2583 818.955 63.8422 822.299 65.0099C825.696 66.1246 828.589 67.9559 830.977 70.5037C833.419 73.0516 835.277 76.3691 836.551 80.4563C837.825 84.4904 838.462 89.4534 838.462 95.3453V151H819.194V95.2657C819.194 91.1254 818.583 87.861 817.362 85.4724C816.195 83.0307 814.469 81.3056 812.187 80.2971C809.958 79.2354 807.171 78.7046 803.827 78.7046C800.536 78.7046 797.59 79.3947 794.989 80.7748C792.388 82.1549 790.185 84.0392 788.38 86.4278C786.629 88.8164 785.275 91.5766 784.32 94.7084C783.364 97.8401 782.887 101.184 782.887 104.741ZM882.731 151H863.463V59.2773C863.463 52.3237 864.843 46.4584 867.603 41.6811C870.416 36.9039 874.424 33.2679 879.625 30.7731C884.88 28.2784 891.117 27.031 898.336 27.031C902.583 27.031 906.67 27.4822 910.598 28.3845C914.579 29.2869 918.693 30.4281 922.939 31.8082L919.993 47.4138C917.286 46.5114 914.287 45.6622 910.996 44.866C907.705 44.0167 903.91 43.592 899.61 43.592C893.824 43.592 889.551 44.919 886.791 47.5731C884.084 50.174 882.731 54.0754 882.731 59.2773V151ZM900.008 64.8507V78.8639H850.246V64.8507H900.008ZM932.016 64.8507V151H912.827V64.8507H932.016ZM972.463 83.243V151H953.274V64.8507H971.348L972.463 83.243ZM969.039 104.741L962.829 104.661C962.882 98.5567 963.731 92.9567 965.377 87.861C967.075 82.7653 969.411 78.3862 972.383 74.7236C975.409 71.0611 979.018 68.2478 983.212 66.2839C987.405 64.2668 992.076 63.2583 997.225 63.2583C1001.37 63.2583 1005.11 63.8422 1008.45 65.0099C1011.85 66.1246 1014.74 67.9559 1017.13 70.5037C1019.57 73.0516 1021.43 76.3691 1022.7 80.4563C1023.98 84.4904 1024.61 89.4534 1024.61 95.3453V151H1005.35V95.2657C1005.35 91.1254 1004.74 87.861 1003.51 85.4724C1002.35 83.0307 1000.62 81.3056 998.34 80.2971C996.11 79.2354 993.323 78.7046 989.979 78.7046C986.688 78.7046 983.742 79.3947 981.142 80.7748C978.541 82.1549 976.338 84.0392 974.533 86.4278C972.781 88.8164 971.428 91.5766 970.472 94.7084C969.517 97.8401 969.039 101.184 969.039 104.741ZM1092.77 133.722V92.6382C1092.77 89.5596 1092.21 86.9055 1091.1 84.6762C1089.98 82.4468 1088.28 80.7217 1086 79.5008C1083.77 78.28 1080.96 77.6696 1077.56 77.6696C1074.43 77.6696 1071.72 78.2004 1069.44 79.262C1067.16 80.3236 1065.38 81.7568 1064.11 83.5615C1062.83 85.3662 1062.2 87.4098 1062.2 89.6923H1043.09C1043.09 86.2951 1043.91 83.0041 1045.55 79.8193C1047.2 76.6345 1049.59 73.7947 1052.72 71.2999C1055.85 68.8052 1059.59 66.8412 1063.95 65.408C1068.3 63.9749 1073.18 63.2583 1078.6 63.2583C1085.07 63.2583 1090.81 64.3464 1095.79 66.5227C1100.84 68.699 1104.79 71.99 1107.66 76.3957C1110.58 80.7482 1112.04 86.2155 1112.04 92.7975V131.095C1112.04 135.023 1112.3 138.553 1112.83 141.684C1113.42 144.763 1114.24 147.444 1115.3 149.726V151H1095.64C1094.73 148.93 1094.02 146.302 1093.49 143.118C1093.01 139.88 1092.77 136.748 1092.77 133.722ZM1095.56 98.6098L1095.72 110.473H1081.94C1078.38 110.473 1075.25 110.818 1072.55 111.508C1069.84 112.145 1067.58 113.101 1065.78 114.375C1063.97 115.649 1062.62 117.188 1061.72 118.993C1060.82 120.797 1060.36 122.841 1060.36 125.123C1060.36 127.406 1060.89 129.502 1061.96 131.413C1063.02 133.271 1064.56 134.731 1066.57 135.792C1068.64 136.854 1071.14 137.385 1074.06 137.385C1077.99 137.385 1081.41 136.589 1084.33 134.996C1087.3 133.351 1089.64 131.36 1091.34 129.025C1093.03 126.636 1093.94 124.38 1094.04 122.257L1100.25 130.776C1099.62 132.953 1098.53 135.288 1096.99 137.783C1095.45 140.278 1093.43 142.666 1090.94 144.949C1088.5 147.178 1085.55 149.009 1082.1 150.443C1078.7 151.876 1074.78 152.592 1070.32 152.592C1064.69 152.592 1059.67 151.478 1055.27 149.248C1050.86 146.966 1047.41 143.914 1044.92 140.092C1042.42 136.217 1041.18 131.838 1041.18 126.955C1041.18 122.39 1042.02 118.356 1043.72 114.852C1045.47 111.296 1048.02 108.323 1051.37 105.935C1054.76 103.546 1058.9 101.741 1063.79 100.521C1068.67 99.2467 1074.24 98.6098 1080.51 98.6098H1095.56ZM1151.13 83.243V151H1131.94V64.8507H1150.02L1151.13 83.243ZM1147.71 104.741L1141.5 104.661C1141.55 98.5567 1142.4 92.9567 1144.04 87.861C1145.74 82.7653 1148.08 78.3862 1151.05 74.7236C1154.08 71.0611 1157.69 68.2478 1161.88 66.2839C1166.07 64.2668 1170.74 63.2583 1175.89 63.2583C1180.03 63.2583 1183.78 63.8422 1187.12 65.0099C1190.52 66.1246 1193.41 67.9559 1195.8 70.5037C1198.24 73.0516 1200.1 76.3691 1201.37 80.4563C1202.65 84.4904 1203.28 89.4534 1203.28 95.3453V151H1184.01V95.2657C1184.01 91.1254 1183.4 87.861 1182.18 85.4724C1181.02 83.0307 1179.29 81.3056 1177.01 80.2971C1174.78 79.2354 1171.99 78.7046 1168.65 78.7046C1165.36 78.7046 1162.41 79.3947 1159.81 80.7748C1157.21 82.1549 1155.01 84.0392 1153.2 86.4278C1151.45 88.8164 1150.1 91.5766 1149.14 94.7084C1148.19 97.8401 1147.71 101.184 1147.71 104.741ZM1258.06 137.305C1261.19 137.305 1264.01 136.695 1266.5 135.474C1269.05 134.2 1271.09 132.448 1272.63 130.219C1274.22 127.99 1275.1 125.415 1275.26 122.496H1293.33C1293.23 128.069 1291.58 133.138 1288.4 137.703C1285.21 142.268 1280.99 145.904 1275.74 148.611C1270.48 151.265 1264.67 152.592 1258.3 152.592C1251.72 152.592 1245.99 151.478 1241.1 149.248C1236.22 146.966 1232.16 143.834 1228.92 139.853C1225.68 135.872 1223.24 131.281 1221.6 126.079C1220 120.877 1219.21 115.304 1219.21 109.359V106.572C1219.21 100.627 1220 95.0534 1221.6 89.8515C1223.24 84.5966 1225.68 79.9786 1228.92 75.9975C1232.16 72.0165 1236.22 68.9113 1241.1 66.682C1245.99 64.3995 1251.69 63.2583 1258.22 63.2583C1265.12 63.2583 1271.17 64.6384 1276.37 67.3985C1281.58 70.1056 1285.66 73.9009 1288.64 78.7843C1291.66 83.6146 1293.23 89.2411 1293.33 95.6638H1275.26C1275.1 92.479 1274.3 89.6126 1272.87 87.0648C1271.49 84.4639 1269.53 82.3937 1266.98 80.8544C1264.48 79.3151 1261.49 78.5454 1257.98 78.5454C1254.11 78.5454 1250.9 79.3416 1248.35 80.934C1245.8 82.4733 1243.81 84.5966 1242.38 87.3037C1240.94 89.9577 1239.91 92.9567 1239.27 96.3008C1238.69 99.5917 1238.4 103.015 1238.4 106.572V109.359C1238.4 112.915 1238.69 116.365 1239.27 119.709C1239.85 123.053 1240.86 126.052 1242.3 128.706C1243.78 131.307 1245.8 133.404 1248.35 134.996C1250.9 136.536 1254.13 137.305 1258.06 137.305ZM1346.04 152.592C1339.67 152.592 1333.91 151.557 1328.76 149.487C1323.67 147.364 1319.32 144.418 1315.71 140.649C1312.15 136.881 1309.42 132.448 1307.51 127.353C1305.59 122.257 1304.64 116.763 1304.64 110.871V107.686C1304.64 100.945 1305.62 94.8411 1307.59 89.3738C1309.55 83.9065 1312.28 79.2354 1315.79 75.3606C1319.29 71.4326 1323.43 68.4336 1328.21 66.3635C1332.98 64.2933 1338.16 63.2583 1343.73 63.2583C1349.89 63.2583 1355.28 64.2933 1359.9 66.3635C1364.51 68.4336 1368.34 71.353 1371.36 75.1217C1374.44 78.8373 1376.72 83.2695 1378.21 88.4183C1379.75 93.5671 1380.52 99.2467 1380.52 105.457V113.658H1313.95V99.8837H1361.57V98.3709C1361.46 94.9207 1360.77 91.6828 1359.5 88.6572C1358.28 85.6316 1356.39 83.1899 1353.84 81.3321C1351.3 79.4743 1347.9 78.5454 1343.65 78.5454C1340.47 78.5454 1337.63 79.2354 1335.13 80.6155C1332.69 81.9425 1330.65 83.88 1329 86.4278C1327.36 88.9757 1326.08 92.0543 1325.18 95.6638C1324.33 99.2202 1323.91 103.228 1323.91 107.686V110.871C1323.91 114.64 1324.41 118.143 1325.42 121.381C1326.48 124.566 1328.02 127.353 1330.04 129.741C1332.06 132.13 1334.5 134.014 1337.36 135.394C1340.23 136.721 1343.49 137.385 1347.16 137.385C1351.77 137.385 1355.89 136.456 1359.5 134.598C1363.11 132.74 1366.24 130.113 1368.89 126.716L1379 136.509C1377.15 139.216 1374.73 141.817 1371.76 144.312C1368.79 146.754 1365.15 148.744 1360.85 150.283C1356.6 151.823 1351.67 152.592 1346.04 152.592Z" fill="white"/>
</svg>
