<svg width="200" viewBox="515.93 161.46 1560.13 158.73" xmlns="http://www.w3.org/2000/svg">
  <defs>
    <style type="text/css">
	.st0{fill:#75BFE7;}
	.st1{clip-path:url(#SVGID_2_);}
	.st2{clip-path:url(#XMLID_2083_);}
	.st3{fill:url(#XMLID_2084_);}
	.st4{fill:url(#XMLID_2085_);}
	.st5{fill:#D3504F;}
	.st6{fill:url(#);}
	.st7{fill:url(#XMLID_2086_);}
	.st8{fill:#FFFFFF;}
	.st9{fill:url(#XMLID_2087_);}
	.st10{fill:#F4EDE6;}
	.st11{clip-path:url(#XMLID_2088_);}

		.st12{clip-path:url(#XMLID_2089_);fill:none;stroke:#FFFFFF;stroke-width:0.406;stroke-linecap:round;stroke-linejoin:round;stroke-miterlimit:10;}

		.st13{clip-path:url(#XMLID_2090_);fill:none;stroke:#FFFFFF;stroke-width:0.406;stroke-linecap:round;stroke-linejoin:round;stroke-miterlimit:10;}

		.st14{clip-path:url(#XMLID_2091_);fill:none;stroke:#FFFFFF;stroke-width:0.406;stroke-linecap:round;stroke-linejoin:round;stroke-miterlimit:10;}

		.st15{clip-path:url(#XMLID_2092_);fill:none;stroke:#FFFFFF;stroke-width:0.406;stroke-linecap:round;stroke-linejoin:round;stroke-miterlimit:10;}

		.st16{clip-path:url(#XMLID_2093_);fill:none;stroke:#FFFFFF;stroke-width:0.406;stroke-linecap:round;stroke-linejoin:round;stroke-miterlimit:10;}

		.st17{clip-path:url(#XMLID_2094_);fill:none;stroke:#FFFFFF;stroke-width:0.406;stroke-linecap:round;stroke-linejoin:round;stroke-miterlimit:10;}

		.st18{clip-path:url(#XMLID_2095_);fill:none;stroke:#FFFFFF;stroke-width:0.406;stroke-linecap:round;stroke-linejoin:round;stroke-miterlimit:10;}

		.st19{clip-path:url(#XMLID_2096_);fill:none;stroke:#FFFFFF;stroke-width:0.406;stroke-linecap:round;stroke-linejoin:round;stroke-miterlimit:10;}

		.st20{clip-path:url(#XMLID_2097_);fill:none;stroke:#FFFFFF;stroke-width:0.406;stroke-linecap:round;stroke-linejoin:round;stroke-miterlimit:10;}

		.st21{clip-path:url(#XMLID_2098_);fill:none;stroke:#FFFFFF;stroke-width:0.406;stroke-linecap:round;stroke-linejoin:round;stroke-miterlimit:10;}

		.st22{clip-path:url(#XMLID_2099_);fill:none;stroke:#FFFFFF;stroke-width:0.406;stroke-linecap:round;stroke-linejoin:round;stroke-miterlimit:10;}

		.st23{clip-path:url(#XMLID_2100_);fill:none;stroke:#FFFFFF;stroke-width:0.406;stroke-linecap:round;stroke-linejoin:round;stroke-miterlimit:10;}

		.st24{clip-path:url(#XMLID_2101_);fill:none;stroke:#FFFFFF;stroke-width:0.406;stroke-linecap:round;stroke-linejoin:round;stroke-miterlimit:10;}

		.st25{clip-path:url(#XMLID_2102_);fill:none;stroke:#FFFFFF;stroke-width:0.406;stroke-linecap:round;stroke-linejoin:round;stroke-miterlimit:10;}

		.st26{clip-path:url(#XMLID_2103_);fill:none;stroke:#FFFFFF;stroke-width:0.406;stroke-linecap:round;stroke-linejoin:round;stroke-miterlimit:10;}

		.st27{clip-path:url(#XMLID_2104_);fill:none;stroke:#FFFFFF;stroke-width:0.406;stroke-linecap:round;stroke-linejoin:round;stroke-miterlimit:10;}
	.st28{fill:url(#XMLID_2105_);}
	.st29{fill:none;stroke:#FFFFFF;stroke-width:1.1225;stroke-miterlimit:10;}
	.st30{fill:url(#XMLID_2106_);}
	.st31{fill:url(#XMLID_2107_);}
	.st32{clip-path:url(#XMLID_2083_);fill:none;stroke:#FFFFFF;stroke-width:1.1225;stroke-miterlimit:10;}
	.st33{fill:none;stroke:#FFFFFF;stroke-width:0.5613;stroke-miterlimit:10;}
	.st34{fill:none;stroke:#3C4A4C;stroke-width:0.5613;stroke-miterlimit:10;}
	.st35{fill:url(#XMLID_2108_);}
	.st36{clip-path:url(#XMLID_2109_);}
	.st37{clip-path:url(#XMLID_2110_);}
	.st38{fill:none;stroke:#FFFFFF;stroke-width:0.2381;stroke-miterlimit:10;}
	.st39{clip-path:url(#XMLID_2111_);}
	.st40{clip-path:url(#XMLID_2112_);}
	.st41{clip-path:url(#XMLID_2113_);}
	.st42{clip-path:url(#XMLID_2114_);}
	.st43{clip-path:url(#XMLID_2115_);}
	.st44{clip-path:url(#XMLID_2116_);}
	.st45{clip-path:url(#XMLID_2117_);}
	.st46{clip-path:url(#XMLID_2118_);}
	.st47{clip-path:url(#XMLID_2119_);}
	.st48{clip-path:url(#XMLID_2120_);}
	.st49{clip-path:url(#XMLID_2121_);}
	.st50{fill:none;stroke:#3C4A4C;stroke-width:0.1403;stroke-miterlimit:10;}
	.st51{fill:none;stroke:#3C4A4C;stroke-width:0.172;stroke-miterlimit:10;}
	.st52{fill:none;stroke:#3C4A4C;stroke-width:0.2037;stroke-miterlimit:10;}
	.st53{fill:none;stroke:#3C4A4C;stroke-width:0.2354;stroke-miterlimit:10;}
	.st54{fill:none;stroke:#3C4A4C;stroke-width:0.2671;stroke-miterlimit:10;}
	.st55{fill:none;stroke:#3C4A4C;stroke-width:0.2987;stroke-miterlimit:10;}
	.st56{fill:none;stroke:#3C4A4C;stroke-width:0.3304;stroke-miterlimit:10;}
	.st57{fill:none;stroke:#3C4A4C;stroke-width:0.3621;stroke-miterlimit:10;}
	.st58{fill:none;stroke:#3C4A4C;stroke-width:0.3938;stroke-miterlimit:10;}
	.st59{fill:none;stroke:#3C4A4C;stroke-width:0.4255;stroke-miterlimit:10;}
	.st60{fill:none;stroke:#3C4A4C;stroke-width:0.4572;stroke-miterlimit:10;}
	.st61{fill:none;stroke:#3C4A4C;stroke-width:0.4888;stroke-miterlimit:10;}
	.st62{fill:none;stroke:#3C4A4C;stroke-width:0.5205;stroke-miterlimit:10;}
	.st63{fill:none;stroke:#3C4A4C;stroke-width:0.5522;stroke-miterlimit:10;}
	.st64{fill:none;stroke:#3C4A4C;stroke-width:0.5839;stroke-miterlimit:10;}
	.st65{fill:none;stroke:#3C4A4C;stroke-width:0.6156;stroke-miterlimit:10;}
	.st66{fill:none;stroke:#3C4A4C;stroke-width:0.6473;stroke-miterlimit:10;}
	.st67{fill:none;stroke:#3C4A4C;stroke-width:0.6789;stroke-miterlimit:10;}
	.st68{fill:none;stroke:#3C4A4C;stroke-width:0.7106;stroke-miterlimit:10;}
	.st69{fill:none;stroke:#3C4A4C;stroke-width:0.7423;stroke-miterlimit:10;}
	.st70{fill:none;stroke:#3C4A4C;stroke-width:0.774;stroke-miterlimit:10;}
	.st71{fill:none;stroke:#3C4A4C;stroke-width:0.8057;stroke-miterlimit:10;}
	.st72{fill:none;stroke:#3C4A4C;stroke-width:0.8374;stroke-miterlimit:10;}
	.st73{fill:none;stroke:#3C4A4C;stroke-width:0.869;stroke-miterlimit:10;}
	.st74{fill:none;stroke:#3C4A4C;stroke-width:0.9007;stroke-miterlimit:10;}
	.st75{fill:none;stroke:#3C4A4C;stroke-width:0.9324;stroke-miterlimit:10;}
	.st76{fill:none;stroke:#3C4A4C;stroke-width:0.9641;stroke-miterlimit:10;}
	.st77{fill:none;stroke:#3C4A4C;stroke-width:0.9958;stroke-miterlimit:10;}
	.st78{fill:none;stroke:#3C4A4C;stroke-width:1.0275;stroke-miterlimit:10;}
	.st79{fill:none;stroke:#3C4A4C;stroke-width:1.0592;stroke-miterlimit:10;}
	.st80{fill:none;stroke:#3C4A4C;stroke-width:1.0908;stroke-miterlimit:10;}
	.st81{fill:none;stroke:#3C4A4C;stroke-width:1.1225;stroke-miterlimit:10;}
	.st82{fill:url(#XMLID_2122_);}
	.st83{opacity:0.2;fill:url(#);}
	.st84{fill:#010202;}
	.st85{fill:#575756;}
	.st86{fill:none;stroke:#333333;stroke-width:0.2835;stroke-miterlimit:10;}
	.st87{fill:url(#SVGID_3_);}
	.st88{fill:#008D36;}
	.st89{fill:#E94E1B;}
	.st90{fill:#DADADA;}
	.st91{fill:#F39200;}
	.st92{fill:#008D36;stroke:#FFFFFF;stroke-miterlimit:10;}
	.st93{fill:none;stroke:#FFFFFF;stroke-miterlimit:10;}
	.st94{fill:#020203;}
	.st95{clip-path:url(#XMLID_2123_);}
	.st96{fill:url(#XMLID_2124_);}
	.st97{fill:url(#XMLID_2125_);}
	.st98{fill:url(#XMLID_2126_);}
	.st99{fill:url(#XMLID_2127_);}
	.st100{clip-path:url(#XMLID_2128_);}

		.st101{clip-path:url(#XMLID_2129_);fill:none;stroke:#FFFFFF;stroke-width:0.406;stroke-linecap:round;stroke-linejoin:round;stroke-miterlimit:10;}

		.st102{clip-path:url(#XMLID_2130_);fill:none;stroke:#FFFFFF;stroke-width:0.406;stroke-linecap:round;stroke-linejoin:round;stroke-miterlimit:10;}

		.st103{clip-path:url(#XMLID_2131_);fill:none;stroke:#FFFFFF;stroke-width:0.406;stroke-linecap:round;stroke-linejoin:round;stroke-miterlimit:10;}

		.st104{clip-path:url(#XMLID_2132_);fill:none;stroke:#FFFFFF;stroke-width:0.406;stroke-linecap:round;stroke-linejoin:round;stroke-miterlimit:10;}

		.st105{clip-path:url(#XMLID_2133_);fill:none;stroke:#FFFFFF;stroke-width:0.406;stroke-linecap:round;stroke-linejoin:round;stroke-miterlimit:10;}

		.st106{clip-path:url(#XMLID_2134_);fill:none;stroke:#FFFFFF;stroke-width:0.406;stroke-linecap:round;stroke-linejoin:round;stroke-miterlimit:10;}

		.st107{clip-path:url(#XMLID_2135_);fill:none;stroke:#FFFFFF;stroke-width:0.406;stroke-linecap:round;stroke-linejoin:round;stroke-miterlimit:10;}

		.st108{clip-path:url(#XMLID_2136_);fill:none;stroke:#FFFFFF;stroke-width:0.406;stroke-linecap:round;stroke-linejoin:round;stroke-miterlimit:10;}

		.st109{clip-path:url(#XMLID_2137_);fill:none;stroke:#FFFFFF;stroke-width:0.406;stroke-linecap:round;stroke-linejoin:round;stroke-miterlimit:10;}

		.st110{clip-path:url(#XMLID_2138_);fill:none;stroke:#FFFFFF;stroke-width:0.406;stroke-linecap:round;stroke-linejoin:round;stroke-miterlimit:10;}

		.st111{clip-path:url(#XMLID_2139_);fill:none;stroke:#FFFFFF;stroke-width:0.406;stroke-linecap:round;stroke-linejoin:round;stroke-miterlimit:10;}

		.st112{clip-path:url(#XMLID_2140_);fill:none;stroke:#FFFFFF;stroke-width:0.406;stroke-linecap:round;stroke-linejoin:round;stroke-miterlimit:10;}

		.st113{clip-path:url(#XMLID_2141_);fill:none;stroke:#FFFFFF;stroke-width:0.406;stroke-linecap:round;stroke-linejoin:round;stroke-miterlimit:10;}

		.st114{clip-path:url(#XMLID_2142_);fill:none;stroke:#FFFFFF;stroke-width:0.406;stroke-linecap:round;stroke-linejoin:round;stroke-miterlimit:10;}

		.st115{clip-path:url(#XMLID_2143_);fill:none;stroke:#FFFFFF;stroke-width:0.406;stroke-linecap:round;stroke-linejoin:round;stroke-miterlimit:10;}

		.st116{clip-path:url(#XMLID_2144_);fill:none;stroke:#FFFFFF;stroke-width:0.406;stroke-linecap:round;stroke-linejoin:round;stroke-miterlimit:10;}
	.st117{fill:url(#XMLID_2145_);}
	.st118{fill:url(#XMLID_2146_);}
	.st119{fill:url(#XMLID_2147_);}
	.st120{clip-path:url(#XMLID_2123_);fill:none;stroke:#FFFFFF;stroke-width:1.1225;stroke-miterlimit:10;}
	.st121{fill:url(#XMLID_2148_);}
	.st122{clip-path:url(#XMLID_2149_);}
	.st123{clip-path:url(#XMLID_2150_);}
	.st124{clip-path:url(#XMLID_2151_);}
	.st125{clip-path:url(#XMLID_2152_);}
	.st126{clip-path:url(#XMLID_2153_);}
	.st127{clip-path:url(#XMLID_2154_);}
	.st128{clip-path:url(#XMLID_2155_);}
	.st129{clip-path:url(#XMLID_2156_);}
	.st130{clip-path:url(#XMLID_2157_);}
	.st131{clip-path:url(#XMLID_2158_);}
	.st132{clip-path:url(#XMLID_2159_);}
	.st133{clip-path:url(#XMLID_2160_);}
	.st134{clip-path:url(#XMLID_2161_);}
	.st135{fill:url(#XMLID_2162_);}
	.st136{fill:#B2B2B2;}
	.st137{fill:#EDEDED;}
	.st138{fill:none;stroke:#FFFFFF;stroke-width:11.3386;stroke-miterlimit:10;}
	.st139{fill:#706F6F;}
	.st140{opacity:0.35;}
	.st141{clip-path:url(#SVGID_5_);}
	.st142{fill:none;stroke:#B5BABA;stroke-width:0.1403;stroke-miterlimit:10;}
	.st143{fill:none;stroke:#B5BABA;stroke-width:0.172;stroke-miterlimit:10;}
	.st144{fill:none;stroke:#B5BABA;stroke-width:0.2037;stroke-miterlimit:10;}
	.st145{fill:none;stroke:#B5BABA;stroke-width:0.2354;stroke-miterlimit:10;}
	.st146{fill:none;stroke:#B5BABA;stroke-width:0.2671;stroke-miterlimit:10;}
	.st147{fill:none;stroke:#B5BABA;stroke-width:0.2987;stroke-miterlimit:10;}
	.st148{fill:none;stroke:#B5BABA;stroke-width:0.3304;stroke-miterlimit:10;}
	.st149{fill:none;stroke:#B5BABA;stroke-width:0.3621;stroke-miterlimit:10;}
	.st150{fill:none;stroke:#B5BABA;stroke-width:0.3938;stroke-miterlimit:10;}
	.st151{fill:none;stroke:#B5BABA;stroke-width:0.4255;stroke-miterlimit:10;}
	.st152{fill:none;stroke:#B5BABA;stroke-width:0.4572;stroke-miterlimit:10;}
	.st153{fill:none;stroke:#B5BABA;stroke-width:0.4888;stroke-miterlimit:10;}
	.st154{fill:none;stroke:#B5BABA;stroke-width:0.5205;stroke-miterlimit:10;}
	.st155{fill:none;stroke:#B5BABA;stroke-width:0.5522;stroke-miterlimit:10;}
	.st156{fill:none;stroke:#B5BABA;stroke-width:0.5839;stroke-miterlimit:10;}
	.st157{fill:none;stroke:#B5BABA;stroke-width:0.6156;stroke-miterlimit:10;}
	.st158{fill:none;stroke:#B5BABA;stroke-width:0.6473;stroke-miterlimit:10;}
	.st159{fill:none;stroke:#B5BABA;stroke-width:0.6789;stroke-miterlimit:10;}
	.st160{fill:none;stroke:#B5BABA;stroke-width:0.7106;stroke-miterlimit:10;}
	.st161{fill:none;stroke:#B5BABA;stroke-width:0.7423;stroke-miterlimit:10;}
	.st162{fill:none;stroke:#B5BABA;stroke-width:0.774;stroke-miterlimit:10;}
	.st163{fill:none;stroke:#B5BABA;stroke-width:0.8057;stroke-miterlimit:10;}
	.st164{fill:none;stroke:#B5BABA;stroke-width:0.8374;stroke-miterlimit:10;}
	.st165{fill:none;stroke:#B5BABA;stroke-width:0.869;stroke-miterlimit:10;}
	.st166{fill:none;stroke:#B5BABA;stroke-width:0.9007;stroke-miterlimit:10;}
	.st167{fill:none;stroke:#B5BABA;stroke-width:0.9324;stroke-miterlimit:10;}
	.st168{fill:none;stroke:#B5BABA;stroke-width:0.9641;stroke-miterlimit:10;}
	.st169{fill:none;stroke:#B5BABA;stroke-width:0.9958;stroke-miterlimit:10;}
	.st170{fill:none;stroke:#B5BABA;stroke-width:1.0275;stroke-miterlimit:10;}
	.st171{fill:none;stroke:#B5BABA;stroke-width:1.0592;stroke-miterlimit:10;}
	.st172{fill:none;stroke:#B5BABA;stroke-width:1.0908;stroke-miterlimit:10;}
	.st173{fill:none;stroke:#B5BABA;stroke-width:1.1225;stroke-miterlimit:10;}
	.st174{fill:#48A7DE;}
	.st175{fill:#FFFFFF;stroke:#C6C6C6;stroke-width:5.6693;stroke-miterlimit:10;}
	.st176{fill:none;}
	.st177{clip-path:url(#SVGID_9_);}
	.st178{fill:none;stroke:#FFFFFF;stroke-width:0.1403;stroke-miterlimit:10;}
	.st179{fill:none;stroke:#FFFFFF;stroke-width:0.172;stroke-miterlimit:10;}
	.st180{fill:none;stroke:#FFFFFF;stroke-width:0.2037;stroke-miterlimit:10;}
	.st181{fill:none;stroke:#FFFFFF;stroke-width:0.2354;stroke-miterlimit:10;}
	.st182{fill:none;stroke:#FFFFFF;stroke-width:0.2671;stroke-miterlimit:10;}
	.st183{fill:none;stroke:#FFFFFF;stroke-width:0.2987;stroke-miterlimit:10;}
	.st184{fill:none;stroke:#FFFFFF;stroke-width:0.3304;stroke-miterlimit:10;}
	.st185{fill:none;stroke:#FFFFFF;stroke-width:0.3621;stroke-miterlimit:10;}
	.st186{fill:none;stroke:#FFFFFF;stroke-width:0.3938;stroke-miterlimit:10;}
	.st187{fill:none;stroke:#FFFFFF;stroke-width:0.4255;stroke-miterlimit:10;}
	.st188{fill:none;stroke:#FFFFFF;stroke-width:0.4572;stroke-miterlimit:10;}
	.st189{fill:none;stroke:#FFFFFF;stroke-width:0.4888;stroke-miterlimit:10;}
	.st190{fill:none;stroke:#FFFFFF;stroke-width:0.5205;stroke-miterlimit:10;}
	.st191{fill:none;stroke:#FFFFFF;stroke-width:0.5522;stroke-miterlimit:10;}
	.st192{fill:none;stroke:#FFFFFF;stroke-width:0.5839;stroke-miterlimit:10;}
	.st193{fill:none;stroke:#FFFFFF;stroke-width:0.6156;stroke-miterlimit:10;}
	.st194{fill:none;stroke:#FFFFFF;stroke-width:0.6473;stroke-miterlimit:10;}
	.st195{fill:none;stroke:#FFFFFF;stroke-width:0.6789;stroke-miterlimit:10;}
	.st196{fill:none;stroke:#FFFFFF;stroke-width:0.7106;stroke-miterlimit:10;}
	.st197{fill:none;stroke:#FFFFFF;stroke-width:0.7423;stroke-miterlimit:10;}
	.st198{fill:none;stroke:#FFFFFF;stroke-width:0.774;stroke-miterlimit:10;}
	.st199{fill:none;stroke:#FFFFFF;stroke-width:0.8057;stroke-miterlimit:10;}
	.st200{fill:none;stroke:#FFFFFF;stroke-width:0.8374;stroke-miterlimit:10;}
	.st201{fill:none;stroke:#FFFFFF;stroke-width:0.869;stroke-miterlimit:10;}
	.st202{fill:none;stroke:#FFFFFF;stroke-width:0.9007;stroke-miterlimit:10;}
	.st203{fill:none;stroke:#FFFFFF;stroke-width:0.9324;stroke-miterlimit:10;}
	.st204{fill:none;stroke:#FFFFFF;stroke-width:0.9641;stroke-miterlimit:10;}
	.st205{fill:none;stroke:#FFFFFF;stroke-width:0.9958;stroke-miterlimit:10;}
	.st206{fill:none;stroke:#FFFFFF;stroke-width:1.0275;stroke-miterlimit:10;}
	.st207{fill:none;stroke:#FFFFFF;stroke-width:1.0592;stroke-miterlimit:10;}
	.st208{fill:none;stroke:#FFFFFF;stroke-width:1.0908;stroke-miterlimit:10;}
	.st209{clip-path:url(#SVGID_11_);}
	.st210{clip-path:url(#SVGID_13_);}
	.st211{fill:url(#XMLID_2163_);}
	.st212{fill:url(#XMLID_2164_);}
	.st213{fill:url(#XMLID_2165_);}
	.st214{opacity:0.5;}
	.st215{fill:url(#XMLID_2166_);}
	.st216{clip-path:url(#XMLID_2167_);}

		.st217{clip-path:url(#XMLID_2168_);fill:none;stroke:#FFFFFF;stroke-width:0.406;stroke-linecap:round;stroke-linejoin:round;stroke-miterlimit:10;}

		.st218{clip-path:url(#XMLID_2169_);fill:none;stroke:#FFFFFF;stroke-width:0.406;stroke-linecap:round;stroke-linejoin:round;stroke-miterlimit:10;}

		.st219{clip-path:url(#XMLID_2170_);fill:none;stroke:#FFFFFF;stroke-width:0.406;stroke-linecap:round;stroke-linejoin:round;stroke-miterlimit:10;}

		.st220{clip-path:url(#XMLID_2171_);fill:none;stroke:#FFFFFF;stroke-width:0.406;stroke-linecap:round;stroke-linejoin:round;stroke-miterlimit:10;}

		.st221{clip-path:url(#XMLID_2172_);fill:none;stroke:#FFFFFF;stroke-width:0.406;stroke-linecap:round;stroke-linejoin:round;stroke-miterlimit:10;}

		.st222{clip-path:url(#XMLID_2173_);fill:none;stroke:#FFFFFF;stroke-width:0.406;stroke-linecap:round;stroke-linejoin:round;stroke-miterlimit:10;}

		.st223{clip-path:url(#XMLID_2174_);fill:none;stroke:#FFFFFF;stroke-width:0.406;stroke-linecap:round;stroke-linejoin:round;stroke-miterlimit:10;}

		.st224{clip-path:url(#XMLID_2175_);fill:none;stroke:#FFFFFF;stroke-width:0.406;stroke-linecap:round;stroke-linejoin:round;stroke-miterlimit:10;}

		.st225{clip-path:url(#XMLID_2176_);fill:none;stroke:#FFFFFF;stroke-width:0.406;stroke-linecap:round;stroke-linejoin:round;stroke-miterlimit:10;}

		.st226{clip-path:url(#XMLID_2177_);fill:none;stroke:#FFFFFF;stroke-width:0.406;stroke-linecap:round;stroke-linejoin:round;stroke-miterlimit:10;}

		.st227{clip-path:url(#XMLID_2178_);fill:none;stroke:#FFFFFF;stroke-width:0.406;stroke-linecap:round;stroke-linejoin:round;stroke-miterlimit:10;}

		.st228{clip-path:url(#XMLID_2179_);fill:none;stroke:#FFFFFF;stroke-width:0.406;stroke-linecap:round;stroke-linejoin:round;stroke-miterlimit:10;}

		.st229{clip-path:url(#XMLID_2180_);fill:none;stroke:#FFFFFF;stroke-width:0.406;stroke-linecap:round;stroke-linejoin:round;stroke-miterlimit:10;}

		.st230{clip-path:url(#XMLID_2181_);fill:none;stroke:#FFFFFF;stroke-width:0.406;stroke-linecap:round;stroke-linejoin:round;stroke-miterlimit:10;}

		.st231{clip-path:url(#XMLID_2182_);fill:none;stroke:#FFFFFF;stroke-width:0.406;stroke-linecap:round;stroke-linejoin:round;stroke-miterlimit:10;}

		.st232{clip-path:url(#XMLID_2183_);fill:none;stroke:#FFFFFF;stroke-width:0.406;stroke-linecap:round;stroke-linejoin:round;stroke-miterlimit:10;}
	.st233{fill:url(#XMLID_2184_);}
	.st234{fill:url(#XMLID_2185_);}
	.st235{fill:url(#XMLID_2186_);}
	.st236{opacity:0.15;}
	.st237{fill:url(#XMLID_2187_);}
	.st238{clip-path:url(#XMLID_2188_);}
	.st239{clip-path:url(#XMLID_2189_);}
	.st240{clip-path:url(#XMLID_2190_);}
	.st241{clip-path:url(#XMLID_2191_);}
	.st242{clip-path:url(#XMLID_2192_);}
	.st243{clip-path:url(#XMLID_2193_);}
	.st244{clip-path:url(#XMLID_2194_);}
	.st245{clip-path:url(#XMLID_2195_);}
	.st246{clip-path:url(#XMLID_2196_);}
	.st247{clip-path:url(#XMLID_2197_);}
	.st248{clip-path:url(#XMLID_2198_);}
	.st249{clip-path:url(#XMLID_2199_);}
	.st250{clip-path:url(#XMLID_2200_);}
	.st251{fill:url(#XMLID_2201_);}
</style>
  </defs>
  <g>
    <g>
      <path class="st139" d="M880.33,317.01V213.95h23.49v13.12c5.92-10.58,18.84-16.08,30.47-16.08c13.54,0,25.39,6.14,30.9,18.2 c8.04-13.54,20.1-18.2,33.44-18.2c18.62,0,36.4,11.85,36.4,39.15v66.88h-23.7v-62.86c0-12.06-6.14-21.16-19.89-21.16 c-12.91,0-21.38,10.16-21.38,22.86v61.16h-24.13v-62.86c0-11.85-5.92-21.16-19.89-21.16c-13.12,0-21.37,9.73-21.37,22.86v61.16 H880.33z"/>
      <path class="st139" d="M1147.8,287.6c-5.51,17.99-21.8,32.59-46.56,32.59c-27.94,0-52.69-20.32-52.69-55.24 c0-32.59,24.13-54.18,50.16-54.18c31.74,0,50.37,20.95,50.37,53.54c0,4.02-0.42,7.41-0.64,7.83h-75.34 c0.64,15.66,12.91,26.87,28.15,26.87c14.81,0,22.44-7.83,25.82-17.99L1147.8,287.6z M1124.31,254.15 c-0.42-12.06-8.46-22.86-25.39-22.86c-15.45,0-24.34,11.85-25.18,22.86H1124.31z"/>
      <path class="st139" d="M1188.84,257.96l26.45-4.02c5.93-0.85,7.62-3.81,7.62-7.41c0-8.68-5.93-15.66-19.47-15.66 c-12.91,0-20.1,8.25-21.16,18.62l-22.44-5.08c1.91-17.78,17.99-33.65,43.39-33.65c31.74,0,43.81,17.99,43.81,38.52v51.21 c0,9.31,1.06,15.45,1.27,16.51h-22.86c-0.21-0.64-1.06-4.87-1.06-13.12c-4.87,7.83-15.02,16.3-31.74,16.3 c-21.59,0-34.92-14.81-34.92-31.11C1157.73,270.66,1171.28,260.51,1188.84,257.96z M1222.92,274.26v-4.66l-26.88,4.02 c-7.62,1.27-13.76,5.5-13.76,13.97c0,6.98,5.29,13.33,15.02,13.33C1211.06,300.93,1222.92,294.37,1222.92,274.26z"/>
      <path class="st139" d="M1292.74,317.01h-24.55V213.95h23.91v13.76c6.77-11.85,19.05-16.72,30.47-16.72 c25.19,0,37.25,18.2,37.25,40.84v65.19h-24.55v-60.95c0-12.7-5.72-22.86-21.17-22.86c-13.97,0-21.37,10.8-21.37,24.34V317.01z"/>
      <path class="st139" d="M1435.79,164.85v20.95c-1.48-0.43-4.23-1.06-8.89-1.06c-6.35,0-15.24,2.96-15.24,15.66v13.54h68.57v103.07 h-24.13v-81.69h-44.44v81.69h-24.76v-81.69h-17.99v-21.37h17.99v-14.18c0-23.07,14.81-37.03,35.98-37.03 C1429.01,162.73,1434.09,164,1435.79,164.85z M1468.17,161.46c8.89,0,16.08,7.2,16.08,16.09c0,8.68-7.2,15.87-16.08,15.87 c-8.89,0-15.88-7.2-15.88-15.87C1452.29,168.65,1459.28,161.46,1468.17,161.46z"/>
      <path class="st139" d="M1528.25,317.01h-24.55V213.95h23.91v13.76c6.77-11.85,19.05-16.72,30.47-16.72 c25.19,0,37.25,18.2,37.25,40.84v65.19h-24.55v-60.95c0-12.7-5.72-22.86-21.17-22.86c-13.97,0-21.37,10.8-21.37,24.34V317.01z"/>
      <path class="st139" d="M1641.46,257.96l26.45-4.02c5.93-0.85,7.62-3.81,7.62-7.41c0-8.68-5.93-15.66-19.47-15.66 c-12.91,0-20.1,8.25-21.16,18.62l-22.44-5.08c1.91-17.78,17.99-33.65,43.39-33.65c31.74,0,43.81,17.99,43.81,38.52v51.21 c0,9.31,1.06,15.45,1.27,16.51h-22.86c-0.21-0.64-1.06-4.87-1.06-13.12c-4.87,7.83-15.02,16.3-31.74,16.3 c-21.59,0-34.92-14.81-34.92-31.11C1610.35,270.66,1623.89,260.51,1641.46,257.96z M1675.53,274.26v-4.66l-26.88,4.02 c-7.62,1.27-13.76,5.5-13.76,13.97c0,6.98,5.29,13.33,15.02,13.33C1663.68,300.93,1675.53,294.37,1675.53,274.26z"/>
      <path class="st139" d="M1745.35,317.01h-24.55V213.95h23.91v13.76c6.77-11.85,19.05-16.72,30.47-16.72 c25.19,0,37.25,18.2,37.25,40.84v65.19h-24.55v-60.95c0-12.7-5.72-22.86-21.17-22.86c-13.97,0-21.37,10.8-21.37,24.34V317.01z"/>
      <path class="st139" d="M1850.3,265.37c0,20.74,13.33,32.38,28.78,32.38c16.08,0,23.49-11.22,25.82-19.05l21.59,7.83 c-4.86,16.09-20.31,33.65-47.4,33.65c-30.26,0-53.33-23.49-53.33-54.82c0-31.74,23.07-54.6,52.69-54.6 c27.73,0,42.96,17.35,47.19,33.86l-22.01,8.04c-2.33-9.1-9.31-19.26-24.97-19.26C1863.64,233.42,1850.3,244.63,1850.3,265.37z"/>
      <path class="st139" d="M2029.97,287.6c-5.51,17.99-21.8,32.59-46.56,32.59c-27.94,0-52.69-20.32-52.69-55.24 c0-32.59,24.13-54.18,50.16-54.18c31.74,0,50.37,20.95,50.37,53.54c0,4.02-0.42,7.41-0.64,7.83h-75.34 c0.64,15.66,12.91,26.87,28.15,26.87c14.81,0,22.44-7.83,25.82-17.99L2029.97,287.6z M2006.47,254.15 c-0.42-12.06-8.46-22.86-25.39-22.86c-15.45,0-24.34,11.85-25.18,22.86H2006.47z"/>
    </g>
    <g>
      <g>
        <path class="st139" d="M2047.41,236.66c-0.27,0-0.44-0.15-0.44-0.37v-22.78c0-0.15-0.09-0.22-0.26-0.22h-5.29 c-0.27,0-0.44-0.15-0.44-0.37v-1.07c0-0.22,0.18-0.37,0.44-0.37h13.39c0.27,0,0.44,0.15,0.44,0.37v1.07 c0,0.22-0.18,0.37-0.44,0.37h-5.28c-0.18,0-0.27,0.07-0.27,0.22v22.78c0,0.22-0.18,0.37-0.44,0.37H2047.41z"/>
      </g>
      <g>
        <path class="st139" d="M2059.05,211.84c0-0.22,0.18-0.37,0.44-0.37h1.5c0.3,0,0.48,0.11,0.57,0.37l5.99,16.89h0.09l5.91-16.89 c0.09-0.26,0.31-0.37,0.57-0.37h1.5c0.27,0,0.44,0.15,0.44,0.37v24.45c0,0.22-0.18,0.37-0.44,0.37h-1.28 c-0.27,0-0.44-0.15-0.44-0.37v-19.33h-0.13l-5.29,14.85c-0.09,0.26-0.22,0.37-0.48,0.37h-0.88c-0.27,0-0.4-0.11-0.48-0.37 l-5.29-14.85h-0.13v19.33c0,0.22-0.18,0.37-0.44,0.37h-1.28c-0.27,0-0.44-0.15-0.44-0.37V211.84z"/>
      </g>
    </g>
    <path class="st0" d="M820.72,290.08c-8.43-0.28-18.49-33.63-23.91-51.59c-10.96-36.35-21.31-70.68-49.75-70.68 c-25.37,0-36.26,27.65-45.24,55.96c-1.01,3.18-3,9.66-8.37,27.7c-0.67,2.26-1.32,4.53-1.96,6.76 c-4.57,16.04-8.52,29.88-18.53,29.88c-9.64,0-14.54-15.05-18.74-30.46c-1.73-6.34-8.72-29.97-9.57-32.68 c-9.1-28.92-20.11-57.16-45.62-57.16c-28.45,0-38.8,34.36-49.76,70.72c-5.4,17.92-15.46,51.28-23.75,51.56l-9.59-0.22v26.93 l8.94,0.22c28.87,0,39.22-34.35,50.19-70.71c1.4-4.67,2.66-9.64,3.87-14.44c4.56-18.08,8.87-35.15,20.1-35.15 c10.68,0,15.71,18.96,20.15,35.69c0.21,0.8,7.45,25.3,9.23,30.82c8.38,26.02,19.42,53.79,44.55,53.79 c25.36,0,36.21-27.5,45.15-55.66c1.57-4.94,9.07-29.98,9.66-32.16c4.59-17.12,9.52-32.49,19.28-32.49 c11.23,0,15.54,17.07,20.1,35.15c1.21,4.8,2.47,9.77,3.87,14.44C782,282.66,792.36,317,821.3,317l8.86-0.21v-26.93L820.72,290.08z"/>
  </g>
</svg>
