<?xml version="1.0" encoding="utf-8"?>
<svg viewBox="0 0 32 32" xmlns="http://www.w3.org/2000/svg" xmlns:xlink="http://www.w3.org/1999/xlink">
  <defs>
    <radialGradient id="radialGradient6342" cx="1285.1639" cy="678.86682" r="473.74365" gradientTransform="matrix(-0.021296, 0.01223, -0.0091, -0.015846, 54.417307, 6.384332)" gradientUnits="userSpaceOnUse" xlink:href="#linearGradient6336"/>
    <linearGradient id="linearGradient6336">
      <stop style="stop-color:#79b4d1;stop-opacity:1" offset="0" id="stop6338"/>
      <stop style="stop-color:#61a8c8;stop-opacity:1" offset="1" id="stop6340"/>
    </linearGradient>
  </defs>
  <path id="path6330" d="M 16.958 24.495 C 16.64 24.334 16.263 23.86 16.173 23.508 C 16.143 23.395 16.107 23.287 16.092 23.269 C 16.077 23.251 15.735 23.209 15.331 23.176 C 13.47 23.024 12.22 22.862 11.827 22.722 C 11.729 22.687 11.535 22.624 11.396 22.583 C 11.135 22.504 10.57 22.301 10.237 22.166 C 10.133 22.124 9.928 22.061 9.783 22.026 C 9.637 21.992 9.419 21.91 9.298 21.845 C 9.177 21.78 8.98 21.695 8.86 21.656 C 8.575 21.565 7.579 21.07 7.292 20.877 C 7.169 20.794 7.044 20.725 7.016 20.725 C 6.987 20.725 6.72 20.558 6.421 20.354 C 6.123 20.15 5.856 19.983 5.828 19.983 C 5.8 19.983 5.771 19.96 5.763 19.931 C 5.756 19.903 5.579 19.723 5.37 19.531 C 5.162 19.34 4.941 19.115 4.879 19.032 C 4.817 18.949 4.71 18.842 4.64 18.793 C 4.503 18.697 3.924 17.972 3.809 17.751 C 3.769 17.675 3.591 17.409 3.411 17.159 C 3.04 16.643 2.99 16.567 2.46 15.707 C 2.247 15.362 1.991 14.889 1.892 14.656 C 1.681 14.159 1.683 14.162 1.408 13.964 C 1.165 13.788 0.768 13.327 0.632 13.063 C 0.581 12.964 0.511 12.751 0.477 12.589 C 0.443 12.427 0.379 12.156 0.335 11.986 C 0.108 11.102 -0.027 10.067 0.005 9.453 C 0.022 9.113 0.089 8.986 0.335 8.822 C 0.66 8.605 1.093 8.746 1.644 9.248 C 2.228 9.78 2.327 9.889 2.672 10.371 C 3.024 10.863 3.188 11.001 3.617 11.171 C 3.805 11.245 3.936 11.264 4.254 11.264 C 4.632 11.264 4.671 11.256 4.97 11.11 C 5.144 11.025 5.428 10.876 5.602 10.78 C 5.887 10.622 5.945 10.605 6.192 10.608 C 6.629 10.612 7.018 10.817 7.145 11.108 C 7.32 11.509 7.101 12.803 6.762 13.368 C 6.704 13.465 6.404 13.782 6.093 14.073 C 5.783 14.365 5.507 14.645 5.48 14.696 C 5.399 14.848 5.584 15.35 5.844 15.69 C 5.959 15.84 6.231 15.982 6.405 15.984 C 6.465 15.984 6.662 16.023 6.843 16.069 C 7.025 16.116 7.251 16.148 7.346 16.141 C 7.544 16.127 7.528 16.15 7.875 15.375 L 8.083 14.91 L 7.901 14.732 C 7.464 14.304 7.446 13.375 7.871 13.129 C 7.952 13.083 8.163 13.044 8.486 13.017 C 8.977 12.975 9.315 12.917 9.423 12.858 C 9.648 12.735 10.486 11.95 10.861 11.512 C 11.035 11.308 11.303 11.003 11.455 10.834 C 12.397 9.793 12.462 9.731 13.092 9.292 C 14.306 8.448 14.826 8.183 16.305 7.654 C 17.518 7.22 17.432 7.231 19.36 7.26 C 20.902 7.283 21.033 7.291 21.487 7.388 C 22.942 7.696 23.552 7.891 24.11 8.225 C 24.779 8.625 25.087 8.879 25.596 9.452 C 26.313 10.257 26.834 10.643 27.64 10.968 C 28.331 11.246 28.884 11.357 29.943 11.43 C 30.93 11.498 31.292 11.568 31.606 11.751 C 31.876 11.908 31.979 12.083 31.979 12.381 C 31.979 12.61 31.849 13.159 31.748 13.358 C 31.713 13.427 31.684 13.532 31.684 13.592 C 31.684 13.899 31.166 15.126 30.789 15.711 C 30.702 15.846 30.631 15.972 30.631 15.992 C 30.631 16.012 30.565 16.122 30.484 16.238 C 30.402 16.353 30.336 16.463 30.336 16.481 C 30.336 16.5 30.162 16.744 29.949 17.023 C 29.736 17.302 29.478 17.66 29.374 17.819 C 29.271 17.978 29.126 18.173 29.052 18.252 C 28.978 18.331 28.881 18.445 28.837 18.504 C 28.792 18.564 28.519 18.885 28.229 19.219 C 27.94 19.552 27.67 19.875 27.63 19.935 C 27.46 20.192 26.296 21.355 26.07 21.493 C 25.972 21.554 25.805 21.671 25.701 21.754 C 25.437 21.963 25.327 22.029 24.774 22.303 C 23.364 23.004 22.777 23.194 21.679 23.303 C 20.895 23.381 19.838 23.381 19.381 23.302 C 19.184 23.268 18.983 23.24 18.935 23.24 C 18.846 23.24 18.679 23.449 18.433 23.87 C 18.304 24.09 18.183 24.19 17.775 24.409 C 17.463 24.578 17.181 24.608 16.958 24.495 Z" style="fill:url(#radialGradient6342);fill-opacity:1"/>
  <path id="path6328" d="M 17.135 24.773 C 17.004 24.745 16.553 24.32 16.43 24.109 C 16.375 24.014 16.306 23.841 16.279 23.725 C 16.251 23.609 16.207 23.492 16.181 23.465 C 16.154 23.438 15.861 23.396 15.501 23.369 C 14.614 23.303 12.954 23.124 12.527 23.049 C 12 22.956 11.568 22.818 10.375 22.361 C 10.201 22.295 9.997 22.228 9.922 22.214 C 9.847 22.199 9.647 22.123 9.479 22.045 C 9.31 21.966 9.073 21.869 8.952 21.829 C 8.674 21.738 7.514 21.152 7.401 21.046 C 7.354 21.002 7.232 20.929 7.13 20.883 C 6.649 20.668 5.527 19.789 5.08 19.277 C 5.011 19.197 4.861 19.045 4.749 18.939 C 4.517 18.721 4.016 18.068 3.887 17.817 C 3.841 17.725 3.718 17.536 3.616 17.396 C 3.315 16.988 3.028 16.551 2.634 15.902 C 2.29 15.337 2.202 15.169 1.861 14.414 C 1.759 14.19 1.689 14.1 1.522 13.98 C 1.119 13.691 0.587 12.95 0.587 12.679 C 0.587 12.637 0.541 12.418 0.484 12.194 C 0.288 11.419 0.203 10.908 0.146 10.166 C 0.079 9.297 0.102 9.071 0.273 8.893 C 0.455 8.702 0.666 8.654 0.938 8.74 C 1.21 8.825 1.327 8.91 1.829 9.388 C 2.238 9.777 2.355 9.917 2.728 10.456 C 2.98 10.821 3.143 10.962 3.51 11.132 C 4.075 11.395 4.602 11.377 5.143 11.079 C 5.891 10.666 5.988 10.625 6.223 10.625 C 6.503 10.625 6.863 10.756 7.013 10.912 C 7.17 11.076 7.21 11.341 7.162 11.897 C 7.122 12.368 6.978 12.953 6.832 13.238 C 6.714 13.47 6.404 13.815 5.938 14.232 C 5.503 14.622 5.414 14.761 5.455 14.982 C 5.499 15.213 5.757 15.708 5.92 15.871 C 6.074 16.025 6.219 16.08 6.768 16.193 C 6.907 16.221 7.109 16.264 7.216 16.287 C 7.55 16.36 7.608 16.305 7.897 15.646 C 8.034 15.332 8.157 15.042 8.169 15 C 8.185 14.948 8.139 14.88 8.021 14.778 C 7.786 14.577 7.696 14.326 7.696 13.874 C 7.696 13.289 7.862 13.115 8.418 13.114 C 8.681 13.114 9.339 13.003 9.459 12.939 C 9.601 12.863 10.249 12.299 10.526 12.01 C 10.668 11.863 11.018 11.468 11.306 11.131 C 12.279 9.991 12.554 9.712 13.071 9.341 C 14.468 8.34 14.994 8.077 17.083 7.342 C 17.394 7.232 17.422 7.23 18.663 7.217 C 20.409 7.198 21.297 7.252 21.998 7.42 C 23.164 7.7 23.633 7.865 24.159 8.18 C 24.789 8.559 25.135 8.852 25.648 9.442 C 26.327 10.226 26.839 10.62 27.609 10.953 C 28.334 11.267 29.045 11.417 30.069 11.473 C 31.131 11.531 31.72 11.696 31.911 11.988 C 32.063 12.219 32.018 12.731 31.795 13.328 C 31.739 13.477 31.681 13.691 31.666 13.803 C 31.626 14.105 30.994 15.571 30.818 15.772 C 30.787 15.807 30.725 15.911 30.679 16.004 C 30.545 16.279 30.25 16.741 29.994 17.08 C 29.862 17.254 29.634 17.577 29.487 17.797 C 29.34 18.018 29.146 18.283 29.057 18.388 C 28.674 18.834 27.767 19.931 27.645 20.096 C 27.572 20.194 27.42 20.37 27.307 20.487 C 26.478 21.351 26.272 21.556 26.167 21.621 C 26.102 21.663 25.887 21.815 25.69 21.96 C 25.067 22.417 23.536 23.15 22.846 23.32 C 21.964 23.537 20.097 23.624 19.346 23.482 C 19.115 23.438 18.945 23.425 18.903 23.448 C 18.865 23.468 18.72 23.67 18.581 23.895 C 18.442 24.121 18.271 24.348 18.201 24.399 C 17.802 24.694 17.409 24.832 17.135 24.773 Z M 17.555 23.95 C 17.834 23.866 18.054 23.631 18.304 23.149 C 18.429 22.909 18.596 22.61 18.676 22.485 C 18.89 22.145 19.438 21.613 19.682 21.506 C 19.972 21.379 20.302 21.295 20.345 21.337 C 20.364 21.357 20.238 21.489 20.065 21.631 C 19.684 21.942 19.194 22.473 19.193 22.575 C 19.193 22.631 19.231 22.651 19.351 22.656 C 19.438 22.659 19.537 22.659 19.572 22.655 C 19.607 22.651 19.875 22.648 20.167 22.649 C 20.886 22.651 22.736 22.421 22.736 22.329 C 22.736 22.317 22.474 22.321 22.154 22.337 C 21.567 22.366 21.091 22.336 21.091 22.27 C 21.091 22.186 22.402 22.017 23.053 22.016 C 23.754 22.015 24.752 21.837 25.021 21.664 L 25.162 21.573 L 24.867 21.56 C 24.705 21.553 23.879 21.566 23.032 21.588 C 22.184 21.61 21.397 21.612 21.281 21.593 C 21.165 21.573 21.046 21.556 21.017 21.555 C 20.988 21.553 20.965 21.524 20.965 21.49 C 20.965 21.332 21.661 21.247 23.58 21.171 C 24.94 21.117 25.404 21.071 25.787 20.955 C 26.037 20.879 26.114 20.831 26.306 20.629 C 26.613 20.307 26.606 20.269 26.249 20.306 C 26.092 20.322 25.812 20.36 25.626 20.391 C 25.441 20.422 25.08 20.46 24.825 20.475 C 24.57 20.49 23.981 20.538 23.517 20.582 C 22.3 20.698 21.259 20.732 21.166 20.66 C 21.119 20.623 21.105 20.583 21.128 20.547 C 21.172 20.477 21.462 20.409 21.586 20.44 C 21.677 20.463 22.186 20.408 22.631 20.328 C 22.747 20.307 23.127 20.28 23.475 20.268 C 23.823 20.256 24.174 20.227 24.255 20.203 C 24.336 20.179 24.594 20.16 24.828 20.16 C 25.415 20.16 26.795 19.976 26.968 19.875 C 27.145 19.772 27.396 19.444 27.34 19.388 C 27.312 19.361 27.208 19.369 27.032 19.413 C 26.665 19.505 26.157 19.563 25.447 19.592 C 25.116 19.606 24.783 19.637 24.708 19.66 C 24.633 19.683 24.268 19.719 23.897 19.739 C 23.525 19.76 22.993 19.79 22.712 19.805 C 21.99 19.846 21.073 19.742 21.184 19.631 C 21.237 19.578 22.009 19.487 22.589 19.465 C 25.689 19.35 26.905 19.24 27.567 19.018 C 27.706 18.972 27.859 18.901 27.906 18.861 C 28.031 18.756 28.559 18.059 28.559 17.999 C 28.559 17.933 28.387 17.97 27.928 18.134 C 26.931 18.491 25.656 18.781 24.487 18.915 C 23.735 19.002 21.739 19.02 21.439 18.943 C 21.317 18.911 21.218 18.869 21.218 18.849 C 21.218 18.795 21.345 18.776 21.893 18.748 C 22.37 18.724 23.948 18.6 24.876 18.515 C 25.785 18.431 26.97 18.176 28.045 17.834 C 28.828 17.584 28.928 17.54 29.097 17.363 C 29.252 17.202 29.782 16.373 29.782 16.293 C 29.782 16.214 29.746 16.222 29.532 16.344 C 29.43 16.402 29.212 16.508 29.047 16.578 C 28.883 16.648 28.654 16.749 28.538 16.804 C 27.981 17.065 26.307 17.575 25.352 17.774 C 24.231 18.008 22.207 18.206 21.64 18.136 C 21.422 18.11 21.414 18.105 21.518 18.061 C 21.579 18.035 21.788 17.992 21.982 17.965 C 22.177 17.938 22.488 17.881 22.673 17.838 C 22.859 17.795 23.333 17.73 23.728 17.693 C 24.381 17.632 25.083 17.517 26.209 17.286 C 27.116 17.101 28.138 16.715 29.233 16.146 C 30.15 15.67 30.319 15.533 30.438 15.175 C 30.477 15.059 30.498 14.955 30.485 14.942 C 30.472 14.93 30.352 14.986 30.217 15.067 C 29.374 15.575 27.329 16.41 26.306 16.664 C 26.031 16.732 25.772 16.805 25.732 16.827 C 25.627 16.883 24.255 17.232 23.833 17.31 C 23.131 17.439 21.6 17.541 21.353 17.475 C 21.17 17.426 21.269 17.322 21.597 17.22 C 22.08 17.07 22.848 16.882 23.201 16.828 C 23.375 16.802 23.612 16.762 23.728 16.74 C 23.844 16.718 24.176 16.661 24.466 16.614 C 25.102 16.51 26.316 16.205 27.562 15.838 C 28.551 15.546 29.376 15.153 30.1 14.629 C 30.217 14.544 30.41 14.425 30.529 14.365 C 30.789 14.233 30.901 14.099 30.985 13.818 C 31.067 13.542 31.066 13.41 30.982 13.41 C 30.895 13.41 30.696 13.515 30.627 13.598 C 30.596 13.635 30.36 13.814 30.103 13.996 C 29.845 14.178 29.597 14.369 29.55 14.421 C 29.504 14.473 29.393 14.553 29.303 14.598 C 29.214 14.644 29.014 14.761 28.86 14.858 C 28.548 15.055 28.138 15.239 27.567 15.438 C 27.358 15.511 27.136 15.597 27.073 15.629 C 26.764 15.789 26.015 16.007 25.5 16.087 C 25.407 16.102 25.068 16.18 24.746 16.262 C 24.425 16.343 23.959 16.448 23.713 16.495 C 22.671 16.695 20.705 16.659 21.049 16.447 C 21.083 16.426 21.216 16.396 21.344 16.382 C 21.472 16.367 21.681 16.33 21.808 16.299 C 21.936 16.268 22.164 16.23 22.315 16.215 C 22.465 16.199 22.674 16.168 22.779 16.145 C 22.883 16.122 23.108 16.088 23.278 16.069 C 23.503 16.043 23.613 16.009 23.683 15.943 C 23.766 15.866 23.811 15.856 23.986 15.88 C 24.206 15.909 25.275 15.727 25.479 15.626 C 25.537 15.597 25.716 15.541 25.876 15.502 C 26.294 15.399 27.253 15.022 28.306 14.546 C 28.922 14.268 30.099 13.468 30.626 12.97 C 30.87 12.74 31.075 12.52 31.082 12.481 C 31.101 12.372 30.985 12.304 30.677 12.246 C 30.521 12.216 30.318 12.172 30.225 12.148 C 30.132 12.124 29.96 12.103 29.842 12.103 C 29.495 12.101 28.459 11.944 28.137 11.844 C 27.872 11.762 27.114 11.356 26.583 11.014 C 26.459 10.934 25.937 10.457 25.423 9.953 C 24.424 8.974 24.23 8.823 23.538 8.486 C 22.894 8.172 22.861 8.164 21.302 7.927 C 21.009 7.882 19.677 7.78 19.467 7.786 C 18.118 7.825 17.904 7.84 17.484 7.92 C 16.594 8.092 15.574 8.433 15.175 8.693 C 15.052 8.773 14.658 9.014 14.297 9.229 C 13.281 9.835 12.86 10.17 11.906 11.136 C 11.438 11.609 11 12.072 10.932 12.165 C 10.865 12.258 10.621 12.552 10.391 12.819 C 10.063 13.199 9.904 13.345 9.66 13.494 L 9.348 13.684 L 8.851 13.705 C 8.284 13.729 8.206 13.764 8.309 13.949 C 8.35 14.022 8.487 14.12 8.686 14.218 C 9.021 14.383 9.118 14.473 9.079 14.584 C 9.065 14.623 8.937 14.825 8.795 15.034 C 8.482 15.492 8.337 15.83 8.243 16.321 C 8.21 16.495 7.997 16.846 7.871 16.934 C 7.758 17.013 7.545 17.012 7.004 16.931 C 6.451 16.848 6.319 16.801 5.947 16.554 C 5.592 16.318 5.435 16.119 5.146 15.54 C 4.911 15.069 4.794 14.651 4.847 14.473 C 4.913 14.253 4.942 14.211 5.116 14.084 C 5.212 14.014 5.456 13.793 5.658 13.593 C 6.093 13.161 6.297 12.792 6.373 12.304 C 6.413 12.041 6.41 11.972 6.351 11.832 L 6.282 11.668 L 6.068 11.693 C 5.95 11.707 5.746 11.768 5.615 11.829 C 5.414 11.921 5.293 11.942 4.862 11.963 C 4.276 11.991 3.999 11.95 3.483 11.756 C 3.049 11.592 2.873 11.457 2.05 10.653 C 1.682 10.295 1.317 9.967 1.238 9.924 C 1.104 9.852 1.089 9.852 1.024 9.917 C 0.918 10.022 0.892 10.926 0.983 11.313 C 1.021 11.471 1.051 11.661 1.052 11.735 C 1.053 11.993 1.208 12.459 1.384 12.735 C 1.48 12.885 1.596 13.066 1.641 13.135 C 1.685 13.205 1.806 13.332 1.908 13.417 C 2.011 13.503 2.204 13.74 2.337 13.945 C 2.471 14.149 2.614 14.366 2.655 14.426 C 2.697 14.485 2.817 14.707 2.923 14.918 C 3.029 15.129 3.134 15.313 3.156 15.326 C 3.177 15.34 3.271 15.488 3.364 15.656 C 3.601 16.086 3.89 16.482 4.343 16.996 C 4.558 17.239 4.846 17.581 4.983 17.755 C 5.121 17.929 5.379 18.221 5.558 18.403 C 5.87 18.723 6.715 19.485 6.899 19.613 C 7.101 19.754 7.371 19.958 7.569 20.121 C 7.846 20.348 8.705 20.881 9.13 21.09 C 9.501 21.273 9.942 21.409 10.751 21.591 C 11.043 21.656 11.643 21.815 12.084 21.944 C 12.618 22.1 13.124 22.216 13.602 22.29 C 13.997 22.351 14.491 22.437 14.699 22.48 C 14.908 22.524 15.283 22.583 15.531 22.612 C 16.133 22.681 16.171 22.664 16.237 22.287 C 16.296 21.945 16.364 21.804 16.593 21.547 C 16.688 21.439 16.868 21.235 16.992 21.092 C 17.218 20.832 17.43 20.683 17.506 20.73 C 17.58 20.776 17.549 20.942 17.44 21.09 C 17.247 21.352 17.015 21.821 16.941 22.101 C 16.901 22.251 16.841 22.463 16.807 22.57 C 16.77 22.687 16.746 22.937 16.746 23.189 C 16.746 23.588 16.752 23.621 16.859 23.748 C 16.977 23.888 17.17 23.995 17.31 23.997 C 17.354 23.998 17.464 23.977 17.555 23.95 Z M 20.854 15.501 C 20.588 15.385 20.511 15.114 20.669 14.853 C 20.823 14.602 21.137 14.571 21.411 14.781 C 21.527 14.869 21.555 14.92 21.555 15.038 C 21.555 15.261 21.455 15.415 21.261 15.493 C 21.056 15.574 21.025 15.575 20.854 15.501 Z" style="fill:#161b20"/>
</svg>
