<svg width="32" height="32" viewBox="0 0 32 32" fill="none" xmlns="http://www.w3.org/2000/svg">
<mask id="mask0_2145_15" style="mask-type:alpha" maskUnits="userSpaceOnUse" x="0" y="0" width="32" height="32">
<circle cx="16" cy="16" r="16" fill="#D9D9D9"/>
</mask>
<g mask="url(#mask0_2145_15)">
<rect width="32" height="32" fill="#292929"/>
</g>
<g clip-path="url(#clip0_2145_15)">
<path d="M12.8007 19.9597C14.1468 19.9597 15.2381 18.9155 15.2381 17.6274C15.2381 16.3394 14.1468 15.2953 12.8007 15.2953C11.4545 15.2953 10.3633 16.3394 10.3633 17.6274C10.3633 18.9155 11.4545 19.9597 12.8007 19.9597Z" fill="white"/>
<path d="M19.1712 19.9597C20.5174 19.9597 21.6087 18.9155 21.6087 17.6274C21.6087 16.3394 20.5174 15.2953 19.1712 15.2953C17.8252 15.2953 16.7339 16.3394 16.7339 17.6274C16.7339 18.9155 17.8252 19.9597 19.1712 19.9597Z" fill="white"/>
<path d="M15.982 8C9.36388 8 3.99827 13.2318 4 19.6836H7.06103C7.06103 14.8485 11.0235 10.9283 15.982 10.9283C20.9405 10.9283 24.9029 14.8485 24.9029 19.6836H27.9639C27.9651 13.2318 22.5995 8 15.982 8Z" fill="white"/>
</g>
<defs>
<clipPath id="clip0_2145_15">
<rect width="24" height="12" fill="white" transform="translate(4 8)"/>
</clipPath>
</defs>
</svg>
