<svg width="541" height="513" viewBox="0 0 541 513" fill="none" xmlns="http://www.w3.org/2000/svg">
<mask id="mask0_1603_508" style="mask-type:luminance" maskUnits="userSpaceOnUse" x="0" y="0" width="541" height="513">
<path d="M0.0234375 0.195801H540.023V512.804H0.0234375V0.195801Z" fill="white"/>
</mask>
<g mask="url(#mask0_1603_508)">
<rect x="127.5" y="317.171" width="278.465" height="133.724" fill="#119D8A"/>
<path fill-rule="evenodd" clip-rule="evenodd" d="M95.5592 182.841C94.7067 172.034 94.1681 161.206 93.9441 150.368C92.9973 102.863 98.355 71.0029 98.5777 69.6657L102.822 44.7373L123.328 59.5584C124.442 60.3384 150.584 79.3384 183.209 113.939C187.007 117.951 191.028 122.308 195.172 127.011L194.281 129.853C182.655 167.404 175.675 206.239 173.496 245.49C157.283 229.419 139.936 214.534 121.59 200.949C113.094 194.657 104.413 188.618 95.5592 182.841ZM444.487 182.841C445.434 171.106 445.88 160.152 446.102 150.368C447.049 102.863 441.692 71.0029 441.469 69.6657L437.225 44.7373L416.73 59.5584C415.605 60.3384 389.463 79.3384 356.838 113.939C352.778 118.227 348.794 122.585 344.886 127.011L345.777 129.908C357.399 167.46 364.375 206.296 366.55 245.546C382.764 229.475 400.111 214.589 418.456 201.005C426.953 194.713 435.633 188.674 444.487 182.896V182.841Z" fill="#119D8A"/>
<path fill-rule="evenodd" clip-rule="evenodd" d="M270.025 512.492C143.958 518.521 17.8804 413.069 1.78508 175.597L0.0585938 150.335L23.5165 159.896C27.6601 161.567 117.37 198.787 187.421 281.618C187.31 277.762 187.254 273.851 187.254 269.94C187.254 172.577 219.155 81.8123 270.103 0.106934C321.051 81.7565 352.941 172.577 352.941 269.94C352.941 273.84 352.885 277.762 352.774 281.618C422.836 198.787 512.546 161.567 516.679 159.896L540.148 150.335L538.41 175.597C522.315 413.069 396.226 518.532 270.148 512.492H270.025ZM242.268 407.642C235.841 407.642 233.223 410.16 233.223 416.312C233.223 431.289 249.753 443.413 270.036 443.413C290.364 443.413 306.849 431.289 306.849 416.312C306.849 410.16 304.221 407.697 297.794 407.697C294.385 407.809 290.921 408.143 287.58 408.767L287.245 408.823C281.542 409.77 275.784 410.272 270.036 410.383C264.251 410.282 258.481 409.761 252.771 408.823C249.279 408.227 245.752 407.855 242.212 407.709L242.268 407.642ZM176.071 347.901C179.96 347.898 183.811 348.662 187.404 350.149C190.998 351.637 194.263 353.818 197.012 356.569C199.762 359.321 201.943 362.587 203.43 366.182C204.917 369.777 205.68 373.63 205.677 377.52C205.68 381.411 204.917 385.264 203.43 388.859C201.943 392.454 199.762 395.72 197.012 398.471C194.263 401.222 190.998 403.404 187.404 404.892C183.811 406.379 179.96 407.143 176.071 407.14C172.182 407.143 168.331 406.379 164.738 404.892C161.144 403.404 157.879 401.222 155.13 398.471C152.38 395.72 150.199 392.454 148.712 388.859C147.225 385.264 146.462 381.411 146.465 377.52C146.462 373.63 147.225 369.777 148.712 366.182C150.199 362.587 152.38 359.321 155.13 356.569C157.879 353.818 161.144 351.637 164.738 350.149C168.331 348.662 172.182 347.898 176.071 347.901ZM363.935 347.901C367.825 347.896 371.677 348.659 375.272 350.146C378.866 351.633 382.133 353.814 384.883 356.566C387.634 359.317 389.816 362.584 391.304 366.179C392.791 369.775 393.555 373.629 393.552 377.52C393.555 381.412 392.791 385.266 391.304 388.862C389.816 392.457 387.634 395.724 384.883 398.475C382.133 401.226 378.866 403.408 375.272 404.895C371.677 406.382 367.825 407.145 363.935 407.14C360.046 407.143 356.195 406.379 352.601 404.892C349.008 403.404 345.743 401.222 342.993 398.471C340.244 395.72 338.063 392.454 336.576 388.859C335.089 385.264 334.325 381.411 334.328 377.52C334.325 373.63 335.089 369.777 336.576 366.182C338.063 362.587 340.244 359.321 342.993 356.569C345.743 353.818 349.008 351.637 352.601 350.149C356.195 348.662 360.046 347.898 363.935 347.901Z" fill="url(#paint0_linear_1603_508)"/>
</g>
<defs>
<linearGradient id="paint0_linear_1603_508" x1="270.103" y1="0.106934" x2="270.103" y2="512.737" gradientUnits="userSpaceOnUse">
<stop stop-color="#1DBD9D"/>
<stop offset="1" stop-color="#8DF6A6"/>
</linearGradient>
</defs>
</svg>
