<svg width="32" height="32" viewBox="0 0 32 32" fill="none" xmlns="http://www.w3.org/2000/svg">
<mask id="mask0_2040_11" style="mask-type:luminance" maskUnits="userSpaceOnUse" x="0" y="1" width="32" height="31">
<path d="M0 1H31.9408V31.3206H0V1Z" fill="white"/>
</mask>
<g mask="url(#mask0_2040_11)">
<path d="M24.0114 19.749H7.54028V27.6588H24.0114V19.749Z" fill="#119D8A"/>
<path fill-rule="evenodd" clip-rule="evenodd" d="M5.65099 11.8034C5.60056 11.1642 5.56871 10.5237 5.55546 9.88267C5.49945 7.07276 5.81636 5.18825 5.82953 5.10915L6.08058 3.63464L7.29351 4.51131C7.3594 4.55744 8.90569 5.68129 10.8355 7.72791C11.0601 7.96521 11.2979 8.22293 11.5431 8.50111L11.4904 8.66921C10.8027 10.8903 10.3898 13.1874 10.2609 15.5091C9.30193 14.5585 8.27586 13.6781 7.1907 12.8745C6.68817 12.5024 6.17469 12.1451 5.65099 11.8034ZM26.29 11.8034C26.346 11.1093 26.3724 10.4614 26.3855 9.88267C26.4415 7.07276 26.1246 5.18825 26.1115 5.10915L25.8604 3.63464L24.6482 4.51131C24.5816 4.55744 23.0353 5.68129 21.1056 7.72791C20.8654 7.98154 20.6298 8.23931 20.3986 8.50111L20.4513 8.67247C21.1387 10.8937 21.5514 13.1908 21.68 15.5124C22.6391 14.5618 23.6651 13.6813 24.7502 12.8778C25.2528 12.5057 25.7663 12.1485 26.29 11.8067V11.8034Z" fill="#119D8A"/>
<path fill-rule="evenodd" clip-rule="evenodd" d="M15.9706 31.3022C8.51381 31.6588 1.05635 25.4213 0.104318 11.3749L0.00219727 9.8807L1.38973 10.4462C1.63482 10.5451 6.94113 12.7466 11.0846 17.6461C11.0781 17.418 11.0748 17.1866 11.0748 16.9553C11.0748 11.1963 12.9617 5.8276 15.9752 0.994751C18.9888 5.8243 20.8751 11.1963 20.8751 16.9553C20.8751 17.186 20.8718 17.418 20.8652 17.6461C25.0094 12.7466 30.3157 10.5451 30.5602 10.4462L31.9483 9.8807L31.8455 11.3749C30.8935 25.4213 23.4354 31.6595 15.9779 31.3022H15.9706ZM14.3288 25.1003C13.9487 25.1003 13.7938 25.2493 13.7938 25.6132C13.7938 26.4991 14.7716 27.2162 15.9713 27.2162C17.1737 27.2162 18.1488 26.4991 18.1488 25.6132C18.1488 25.2493 17.9933 25.1036 17.6132 25.1036C17.4115 25.1102 17.2066 25.13 17.009 25.1669L16.9892 25.1702C16.6519 25.2262 16.3113 25.2559 15.9713 25.2625C15.6291 25.2565 15.2878 25.2257 14.9501 25.1702C14.7435 25.1349 14.5349 25.1129 14.3255 25.1043L14.3288 25.1003ZM10.4133 21.5667C10.6433 21.5665 10.8711 21.6117 11.0836 21.6996C11.2962 21.7877 11.4893 21.9167 11.6519 22.0794C11.8146 22.2422 11.9436 22.4353 12.0316 22.648C12.1195 22.8606 12.1646 23.0885 12.1645 23.3186C12.1646 23.5488 12.1195 23.7767 12.0316 23.9893C11.9436 24.202 11.8146 24.3952 11.6519 24.5579C11.4893 24.7206 11.2962 24.8497 11.0836 24.9377C10.8711 25.0256 10.6433 25.0708 10.4133 25.0706C10.1832 25.0708 9.95546 25.0256 9.74294 24.9377C9.53035 24.8497 9.33723 24.7206 9.17463 24.5579C9.01197 24.3952 8.88296 24.202 8.795 23.9893C8.70705 23.7767 8.66192 23.5488 8.66209 23.3186C8.66192 23.0885 8.70705 22.8606 8.795 22.648C8.88296 22.4353 9.01197 22.2422 9.17463 22.0794C9.33723 21.9167 9.53035 21.7877 9.74294 21.6996C9.95546 21.6117 10.1832 21.5665 10.4133 21.5667ZM21.5254 21.5667C21.7555 21.5664 21.9833 21.6115 22.196 21.6995C22.4085 21.7874 22.6018 21.9164 22.7645 22.0792C22.9272 22.2419 23.0562 22.4352 23.1443 22.6478C23.2322 22.8605 23.2774 23.0885 23.2772 23.3186C23.2774 23.5488 23.2322 23.7768 23.1443 23.9895C23.0562 24.2021 22.9272 24.3954 22.7645 24.5581C22.6018 24.7208 22.4085 24.8499 22.196 24.9379C21.9833 25.0258 21.7555 25.0709 21.5254 25.0706C21.2954 25.0708 21.0676 25.0256 20.855 24.9377C20.6425 24.8497 20.4493 24.7206 20.2867 24.5579C20.1241 24.3952 19.9951 24.202 19.9071 23.9893C19.8192 23.7767 19.774 23.5488 19.7741 23.3186C19.774 23.0885 19.8192 22.8606 19.9071 22.648C19.9951 22.4353 20.1241 22.2422 20.2867 22.0794C20.4493 21.9167 20.6425 21.7877 20.855 21.6996C21.0676 21.6117 21.2954 21.5665 21.5254 21.5667Z" fill="url(#paint0_linear_2040_11)"/>
</g>
<defs>
<linearGradient id="paint0_linear_2040_11" x1="15.9753" y1="0.994751" x2="15.9753" y2="31.3167" gradientUnits="userSpaceOnUse">
<stop stop-color="#1DBD9D"/>
<stop offset="1" stop-color="#8DF6A6"/>
</linearGradient>
</defs>
</svg>
