<svg width="33" height="31" viewBox="0 0 33 31" fill="none" xmlns="http://www.w3.org/2000/svg">
<mask id="mask0_1603_508" style="mask-type:luminance" maskUnits="userSpaceOnUse" x="0" y="0" width="33" height="31">
<path d="M0.0234375 0.311523H32.0234V30.6883H0.0234375V0.311523Z" fill="white"/>
</mask>
<g mask="url(#mask0_1603_508)">
<rect x="7.57812" y="19.0952" width="16.5017" height="7.92438" fill="#119D8A"/>
<path fill-rule="evenodd" clip-rule="evenodd" d="M5.68438 11.1351C5.63386 10.4947 5.60195 9.853 5.58867 9.21077C5.53257 6.39564 5.85006 4.50765 5.86326 4.42841L6.11474 2.95117L7.32993 3.82946C7.39593 3.87568 8.94511 5.00161 10.8784 7.05204C11.1035 7.28977 11.3418 7.54797 11.5874 7.82665L11.5345 7.99504C10.8456 10.2203 10.432 12.5217 10.3029 14.8476C9.34206 13.8953 8.31411 13.0132 7.22696 12.2082C6.72347 11.8353 6.20905 11.4775 5.68438 11.1351ZM26.3616 11.1351C26.4177 10.4397 26.4441 9.79057 26.4573 9.21077C26.5134 6.39564 26.1959 4.50765 26.1827 4.42841L25.9312 2.95117L24.7167 3.82946C24.6501 3.87568 23.1009 5.00161 21.1675 7.05204C20.927 7.3061 20.6909 7.56434 20.4593 7.82665L20.5121 7.99834C21.2008 10.2236 21.6142 12.525 21.7431 14.851C22.7039 13.8986 23.7319 13.0165 24.819 12.2115C25.3225 11.8386 25.8369 11.4807 26.3616 11.1384V11.1351Z" fill="#119D8A"/>
<path fill-rule="evenodd" clip-rule="evenodd" d="M16.0254 30.6697C8.55474 31.027 1.08345 24.778 0.129654 10.7056L0.0273438 9.20853L1.41744 9.77513C1.66299 9.87418 6.97916 12.0798 11.1303 16.9883C11.1237 16.7598 11.1204 16.528 11.1204 16.2962C11.1204 10.5266 13.0108 5.14795 16.03 0.306152C19.0491 5.14465 20.9389 10.5266 20.9389 16.2962C20.9389 16.5274 20.9356 16.7598 20.929 16.9883C25.0808 12.0798 30.397 9.87418 30.6419 9.77513L32.0326 9.20853L31.9297 10.7056C30.9759 24.778 23.5039 31.0277 16.0326 30.6697H16.0254ZM14.3805 24.4564C13.9996 24.4564 13.8445 24.6056 13.8445 24.9701C13.8445 25.8577 14.824 26.5761 16.026 26.5761C17.2306 26.5761 18.2075 25.8577 18.2075 24.9701C18.2075 24.6056 18.0518 24.4597 17.6709 24.4597C17.4689 24.4663 17.2636 24.4861 17.0656 24.5231L17.0458 24.5264C16.7079 24.5825 16.3666 24.6122 16.026 24.6188C15.6832 24.6128 15.3413 24.5819 15.0029 24.5264C14.796 24.4911 14.5869 24.469 14.3772 24.4603L14.3805 24.4564ZM10.4577 20.9161C10.6882 20.916 10.9164 20.9613 11.1293 21.0494C11.3423 21.1376 11.5357 21.2668 11.6987 21.4299C11.8616 21.5929 11.9909 21.7865 12.079 21.9995C12.1671 22.2125 12.2123 22.4408 12.2122 22.6714C12.2123 22.9019 12.1671 23.1303 12.079 23.3433C11.9909 23.5563 11.8616 23.7499 11.6987 23.9129C11.5357 24.076 11.3423 24.2052 11.1293 24.2934C10.9164 24.3815 10.6882 24.4268 10.4577 24.4266C10.2273 24.4268 9.99904 24.3815 9.7861 24.2934C9.57316 24.2052 9.37968 24.076 9.21673 23.9129C9.05378 23.7499 8.92456 23.5563 8.83645 23.3433C8.74834 23.1303 8.70308 22.9019 8.70325 22.6714C8.70308 22.4408 8.74834 22.2125 8.83645 21.9995C8.92456 21.7865 9.05378 21.5929 9.21673 21.4299C9.37968 21.2668 9.57316 21.1376 9.7861 21.0494C9.99904 20.9613 10.2273 20.916 10.4577 20.9161ZM21.5904 20.9161C21.8209 20.9159 22.0492 20.9611 22.2622 21.0492C22.4752 21.1373 22.6688 21.2666 22.8318 21.4296C22.9948 21.5927 23.1241 21.7863 23.2122 21.9993C23.3004 22.2124 23.3457 22.4408 23.3455 22.6714C23.3457 22.902 23.3004 23.1304 23.2122 23.3435C23.1241 23.5565 22.9948 23.7501 22.8318 23.9132C22.6688 24.0762 22.4752 24.2055 22.2622 24.2936C22.0492 24.3817 21.8209 24.4269 21.5904 24.4266C21.3599 24.4268 21.1317 24.3815 20.9188 24.2934C20.7058 24.2052 20.5124 24.076 20.3494 23.9129C20.1865 23.7499 20.0572 23.5563 19.9691 23.3433C19.881 23.1303 19.8357 22.9019 19.8359 22.6714C19.8357 22.4408 19.881 22.2125 19.9691 21.9995C20.0572 21.7865 20.1865 21.5929 20.3494 21.4299C20.5124 21.2668 20.7058 21.1376 20.9188 21.0494C21.1317 20.9613 21.3599 20.916 21.5904 20.9161Z" fill="url(#paint0_linear_1603_508)"/>
</g>
<defs>
<linearGradient id="paint0_linear_1603_508" x1="16.03" y1="0.306152" x2="16.03" y2="30.6843" gradientUnits="userSpaceOnUse">
<stop stop-color="#1DBD9D"/>
<stop offset="1" stop-color="#8DF6A6"/>
</linearGradient>
</defs>
</svg>
