<svg width="32" height="32" viewBox="0 0 32 32" fill="none" xmlns="http://www.w3.org/2000/svg">
<mask id="mask0_1419_573" style="mask-type:alpha" maskUnits="userSpaceOnUse" x="0" y="0" width="32" height="32">
<circle cx="16" cy="16" r="16" fill="#D9D9D9"/>
</mask>
<g mask="url(#mask0_1419_573)">
<rect width="35.6667" height="35.6667" fill="#FFF6FB"/>
<path d="M34 0H-2V32H34V0Z" fill="#E84142"/>
<path d="M12.0747 22H9.34476C8.77112 22 8.48777 22 8.31498 21.8925C8.1284 21.7751 8.01435 21.5802 8.00053 21.3654C7.99016 21.1673 8.13185 20.9256 8.4152 20.4422L15.1557 8.89892C15.4425 8.40876 15.5876 8.16366 15.7708 8.07302C15.9677 7.97566 16.2027 7.97566 16.3997 8.07302C16.5828 8.16366 16.728 8.40876 17.0148 8.89892L18.4005 11.2491C18.7149 11.7829 18.8739 12.0515 18.943 12.3335C19.019 12.639 19.019 12.9613 18.943 13.2668C18.8739 13.5488 18.7184 13.8174 18.4039 14.3512L14.8633 20.4321C14.5454 20.9726 14.3864 21.2446 14.1653 21.4493C13.9268 21.6709 13.64 21.832 13.3256 21.9227C13.0388 22 12.7174 22 12.0747 22Z" fill="white"/>
<path d="M22.7715 22H19.2253C18.7022 22 18.439 22 18.2855 21.8871C18.1164 21.7634 18.013 21.5549 18.0005 21.329C17.9911 21.1206 18.1226 20.8663 18.3858 20.3541L20.1556 16.928C20.4157 16.423 20.5473 16.1722 20.7102 16.0768C20.8888 15.9744 21.0986 15.9744 21.2772 16.0768C21.4433 16.1722 21.5717 16.423 21.8348 16.9245L23.6111 20.3506C23.8741 20.8627 24.0089 21.117 23.9995 21.3254C23.9901 21.5514 23.8835 21.7599 23.7145 21.8834C23.5578 22 23.2946 22 22.7715 22Z" fill="white"/>
</g>
</svg>
