<svg width="32" height="32" viewBox="0 0 32 32" fill="none" xmlns="http://www.w3.org/2000/svg">
<g clip-path="url(#clip0_1201_1231)">
<path d="M0 16.3965V15.6794C0.0753927 15.1583 0.108901 14.6323 0.137382 14.1129C0.64 9.69991 2.73927 6.17991 6.1688 3.42389C8.24368 1.72016 10.7457 0.617487 13.4031 0.235618C17.8195 -0.385953 21.9158 0.433314 25.5146 3.17091C28.4348 5.40085 30.4921 8.24902 31.4421 11.826C31.9092 13.6184 32.0672 15.4774 31.9095 17.3229C31.7152 19.8528 31.0165 22.2235 29.6394 24.3596C27.2117 28.1276 23.8794 30.7093 19.4429 31.5923C13.125 32.8505 7.80398 31.0176 3.61215 26.0853C1.85506 24.0234 0.696214 21.5197 0.261361 18.8459C0.211099 18.5544 0.177592 18.2628 0.137382 17.9696L0 16.3965ZM30.199 15.9776C30.2492 15.1079 30.1889 14.2354 30.0197 13.3807C29.7422 11.8371 29.2009 10.3528 28.4197 8.9929C27.4544 7.35366 26.1926 5.90833 24.6986 4.7307C23.3049 3.6144 21.7011 2.78942 19.9824 2.30473C18.9717 1.99964 17.9249 1.83061 16.8695 1.80211C16.6165 1.80211 16.3669 1.71834 16.1139 1.75352C15.8098 1.79538 15.5027 1.81219 15.1958 1.80379C14.8215 1.80847 14.4483 1.84433 14.08 1.91101C12.7153 2.09868 11.3838 2.47711 10.1244 3.0352C6.78075 4.54693 4.14835 7.28914 2.77445 10.6917C2.19554 12.118 1.8559 13.6299 1.76921 15.1667C1.71745 16.1288 1.76235 17.0936 1.90325 18.0467C2.07697 19.3606 2.43923 20.6427 2.97885 21.8532C4.02094 24.1753 5.63602 26.0551 7.65654 27.573C10.0658 29.3824 12.8268 30.1967 15.8207 30.2654C16.2748 30.2754 16.7254 30.2402 17.1795 30.205C17.7515 30.1654 18.3206 30.0904 18.8834 29.9805C20.2777 29.7113 21.6196 29.2191 22.8574 28.5229C24.786 27.4336 26.4489 25.9298 27.7261 24.12C28.517 23.0202 29.1304 21.803 29.5439 20.5129C30.0377 19.0539 30.2597 17.5167 30.199 15.9776Z" fill="#C4BAAE"/>
<path d="M30.1983 15.9777C30.2585 17.5169 30.0359 19.0541 29.5416 20.513C29.1281 21.8031 28.5147 23.0203 27.7238 24.1202C26.4462 25.9291 24.7834 27.4323 22.8551 28.5214C21.6173 29.2176 20.2754 29.7097 18.881 29.979C18.3181 30.0866 17.7491 30.1594 17.1772 30.1968C16.7231 30.232 16.2724 30.2672 15.8184 30.2571C12.8245 30.1884 10.0634 29.3742 7.65423 27.5648C5.6337 26.0552 4.0203 24.1754 2.97653 21.8533C2.43691 20.6428 2.07465 19.3608 1.90093 18.0469C1.76003 17.0938 1.71513 16.1289 1.7669 15.1669C1.85358 13.6301 2.19322 12.1181 2.77213 10.6919C4.14595 7.28746 6.77894 4.54346 10.1238 3.03031C11.3814 2.47378 12.7105 2.0954 14.0727 1.90612C14.441 1.83944 14.8142 1.80358 15.1885 1.79889C15.4954 1.8073 15.8024 1.79049 16.1066 1.74863C16.3512 1.71345 16.6092 1.79387 16.8622 1.79722C17.9175 1.82572 18.9644 1.99475 19.9751 2.29984C21.6965 2.78521 23.3027 3.61194 24.698 4.73083C26.1929 5.90947 27.4549 7.35663 28.419 8.99806C29.2003 10.358 29.7415 11.8423 30.019 13.3859C30.1883 14.2388 30.2485 15.1097 30.1983 15.9777ZM10.9095 10.0318H7.77653C7.07119 10.0318 6.74114 10.3669 6.72103 11.0605C6.713 11.4493 6.78603 11.8356 6.93549 12.1947C7.20168 12.8848 7.61901 13.5065 8.15685 14.0142C8.57569 14.4096 8.99739 14.8004 9.42177 15.187C9.58885 15.3317 9.7209 15.5124 9.80796 15.7155C9.89503 15.9187 9.93484 16.139 9.92439 16.3597C9.89926 17.886 9.92439 19.414 9.92439 20.9419C9.91768 21.2368 9.93611 21.5315 9.97967 21.8232C10.333 23.9918 12.2224 25.6022 14.4195 25.6079C15.3443 25.6196 16.2624 25.6079 17.1922 25.6079C17.5538 25.6092 17.9142 25.5682 18.2662 25.4856C20.2919 25.0193 21.7443 23.2082 21.7594 21.1296C21.7744 19.4676 21.7711 17.8056 21.7594 16.1453C21.7509 15.8623 21.8551 15.5875 22.0492 15.3813C22.1849 15.2339 22.334 15.0965 22.4815 14.9625C22.9886 14.5245 23.4666 14.0538 23.9122 13.5535C24.3672 13.0216 24.6908 12.3903 24.8572 11.7105C24.9369 11.4118 24.9535 11.0997 24.9057 10.7941C24.8817 10.6137 24.8015 10.4456 24.6763 10.3135C24.5512 10.1815 24.3876 10.0922 24.2088 10.0586C24.0643 10.0299 23.917 10.0187 23.7698 10.0251H21.4796C21.379 10.0251 21.2634 10.067 21.1713 9.95303V9.03994C21.175 8.78511 21.1475 8.53078 21.0892 8.28266C20.8563 7.42319 20.0538 6.86696 19.0787 6.88204C18.1923 6.87969 17.4109 7.48317 17.1889 8.3413C17.1385 8.57689 17.1155 8.8175 17.1202 9.05837C17.1398 9.38089 17.1291 9.70454 17.0884 10.0251H16.0295C15.6679 10.0507 15.3047 10.0389 14.9455 9.98989V8.76518C14.9438 8.30313 14.7637 7.85961 14.4429 7.52706C14.1526 7.2165 13.7743 7.00198 13.3588 6.91216C12.9432 6.82234 12.5102 6.86152 12.1175 7.02444C11.3736 7.31094 10.9212 7.98612 10.9062 8.84392C10.9045 9.22423 10.9095 9.59785 10.9095 10.0318Z" fill="#F6EEE4"/>
<path d="M10.9117 10.0315V8.85877C10.9268 8.00097 11.3792 7.32579 12.123 7.03929C12.5157 6.87637 12.9488 6.83719 13.3644 6.92701C13.7799 7.01683 14.1581 7.23135 14.4485 7.54191C14.7693 7.87446 14.9493 8.31798 14.9511 8.78003V10.0047C15.3214 10.0801 15.6799 10.0299 16.0351 10.0399C16.3903 10.05 16.727 10.0399 17.0939 10.0399C17.1341 9.71992 17.1442 9.39674 17.1241 9.0749C17.1193 8.83403 17.1424 8.59342 17.1928 8.35783C17.4148 7.49969 18.1962 6.89622 19.0826 6.89856C20.0611 6.88348 20.8636 7.43971 21.0931 8.29919C21.1514 8.54732 21.1789 8.80164 21.1752 9.05647V9.96956C21.2673 10.0835 21.3829 10.0416 21.4835 10.0416H23.7737C23.9208 10.0352 24.0683 10.0465 24.2127 10.0751C24.3915 10.1088 24.5551 10.198 24.6802 10.33C24.8053 10.4621 24.8856 10.6303 24.9096 10.8106C24.9574 11.1161 24.9408 11.4283 24.8611 11.727C24.6947 12.4069 24.3711 13.0381 23.9161 13.57C23.4705 14.0704 22.9925 14.541 22.4853 14.979C22.3379 15.113 22.1888 15.2504 22.0531 15.3978C21.859 15.604 21.7548 15.8788 21.7633 16.1618C21.7733 17.8221 21.7767 19.4841 21.7633 21.1461C21.749 23.2279 20.2929 25.0416 18.2634 25.5055C17.9114 25.5881 17.551 25.6291 17.1894 25.6278C16.2646 25.6278 15.3465 25.6395 14.4167 25.6278C12.213 25.6192 10.3225 23.9964 9.98022 21.8196C9.93666 21.5279 9.91823 21.2332 9.92493 20.9384C9.92493 19.4104 9.89812 17.8824 9.92493 16.3562C9.93538 16.1354 9.89557 15.9151 9.80851 15.712C9.72144 15.5088 9.58939 15.3281 9.42231 15.1834C9.00044 14.7927 8.5788 14.4018 8.15739 14.0106C7.62069 13.5036 7.20399 12.8831 6.9377 12.1945C6.78825 11.8354 6.71522 11.4491 6.72325 11.0602C6.74336 10.37 7.07341 10.0382 7.77875 10.0315H10.9117ZM14.0531 12.0202C14.017 11.9914 13.9752 11.9706 13.9304 11.9593C13.8856 11.948 13.8389 11.9465 13.7934 11.9549H10.7408C10.2483 11.9549 10.0539 12.1811 10.1344 12.6653C10.1955 13.0793 10.3861 13.4635 10.6789 13.7626C10.9034 13.9905 11.1279 14.2217 11.3674 14.4328C11.5252 14.5676 11.6495 14.7372 11.7306 14.9282C11.8117 15.1192 11.8474 15.3264 11.8349 15.5335C11.8148 16.4567 11.8349 17.3765 11.8349 18.3046V20.997C11.8344 21.0173 11.8342 21.0375 11.8342 21.058C11.8342 22.4806 12.9875 23.6589 14.41 23.6893H14.5775C15.4872 23.6558 16.397 23.6893 17.3084 23.6776C17.8201 23.6681 18.3175 23.5072 18.738 23.2153C19.1584 22.9234 19.4829 22.5135 19.6707 22.0374C19.932 21.3823 19.8483 20.6971 19.8382 20.0604C16.0636 18.6464 14.0531 16.0311 14.0531 12.0202ZM18.8447 17.9009C19.3153 17.9009 19.7025 17.5137 19.7025 17.0431C19.7025 16.5724 19.3153 16.1853 18.8447 16.1853C18.3741 16.1853 17.9869 16.5724 17.9869 17.0431C17.9869 17.5137 18.3741 17.9009 18.8447 17.9009ZM19.8198 10.0265C19.8198 9.59259 19.8366 9.18882 19.8198 8.7683C19.803 8.44327 19.5735 8.26568 19.2217 8.2439C18.8162 8.22045 18.5331 8.38128 18.4979 8.71636C18.4527 9.15197 18.4527 9.59092 18.4979 10.0265H19.8198ZM13.5522 10.0265C13.5723 9.98799 13.594 9.96621 13.594 9.94275C13.594 9.62443 13.6091 9.30443 13.6091 8.9861C13.6102 8.87832 13.5978 8.77082 13.5723 8.6661C13.4902 8.36118 13.2255 8.20537 12.8552 8.23553C12.5201 8.26233 12.2889 8.45333 12.2755 8.775C12.2571 9.18547 12.2755 9.59594 12.2755 10.0232L13.5522 10.0265Z" fill="#030202"/>
<path d="M14.053 12.0203C14.053 16.0312 16.0634 18.6465 19.8297 20.0622C19.8297 20.7056 19.9185 21.3841 19.6622 22.0392C19.4744 22.5153 19.1498 22.9252 18.7294 23.2171C18.309 23.509 17.8116 23.6698 17.2999 23.6794C16.3885 23.6928 15.4787 23.6576 14.569 23.6911C13.1293 23.7513 11.8944 22.6177 11.8314 21.178V18.3014C11.8314 17.3782 11.818 16.4584 11.8314 15.5303C11.8439 15.3232 11.8083 15.1159 11.7271 14.9249C11.646 14.7339 11.5217 14.5644 11.364 14.4295C11.1244 14.2151 10.8999 13.9839 10.6754 13.7594C10.3826 13.4602 10.192 13.0761 10.1309 12.662C10.0504 12.1778 10.2448 11.9533 10.7374 11.9516H13.7882C13.8347 11.9427 13.8826 11.9443 13.9283 11.9561C13.9741 11.968 14.0167 11.99 14.053 12.0203ZM14.388 17.0566L14.3882 17.0383C14.3882 16.5687 14.0017 16.1822 13.5321 16.1822C13.0625 16.1822 12.676 16.5687 12.676 17.0383C12.676 17.5004 13.0499 17.8834 13.5118 17.8943C13.9709 17.914 14.3649 17.5525 14.3847 17.0934V17.0566H14.388ZM18.8446 17.901C18.374 17.901 17.9868 17.5138 17.9868 17.0432C17.9868 16.5725 18.374 16.1854 18.8446 16.1854C19.3152 16.1854 19.7024 16.5725 19.7024 17.0432C19.7024 17.5138 19.3152 17.901 18.8446 17.901ZM19.8197 10.0216H18.4961C18.4509 9.58599 18.4509 9.14703 18.4961 8.71143C18.5313 8.37635 18.8144 8.20882 19.2199 8.23897C19.5717 8.25908 19.8012 8.43834 19.818 8.76337C19.8364 9.17552 19.8197 9.58934 19.8197 10.0216ZM13.552 10.0233H12.2703C12.2703 9.59604 12.2569 9.18557 12.2703 8.7751C12.2837 8.45342 12.5082 8.26243 12.85 8.23562C13.2203 8.20546 13.485 8.36128 13.5671 8.6662C13.5927 8.76974 13.605 8.87612 13.604 8.98285C13.604 9.30117 13.604 9.62117 13.5889 9.9395C13.5939 9.96295 13.5721 9.98473 13.552 10.0233Z" fill="#F6EEE4"/>
<path d="M14.384 17.0567C14.3768 17.5213 13.9926 17.8994 13.528 17.8994C13.0582 17.8994 12.6719 17.5129 12.6719 17.0433C12.6719 16.5737 13.0582 16.1872 13.528 16.1872H13.5329L13.5464 16.187C14.001 16.187 14.3768 16.5569 14.384 17.0115V17.0567Z" fill="#030202"/>
</g>
<defs>
<clipPath id="clip0_1201_1231">
<rect width="32" height="32" fill="white"/>
</clipPath>
</defs>
</svg>
