<svg width="32" height="32" viewBox="0 0 32 32" fill="none" xmlns="http://www.w3.org/2000/svg">
<g clip-path="url(#clip0_1270_555)">
<path d="M15.984 0C7.152 0 0 7.168 0 16C0 24.832 7.152 32 15.984 32C24.832 32 32 24.832 32 16C32 7.168 24.832 0 15.984 0ZM16 28.8C8.928 28.8 3.2 23.072 3.2 16C3.2 8.928 8.928 3.2 16 3.2C23.072 3.2 28.8 8.928 28.8 16C28.8 23.072 23.072 28.8 16 28.8Z" fill="white"/>
<path d="M16.6666 9.33325H14.6666V18.0764L21.6666 22.6666L22.6666 20.8742L16.6666 16.9835V9.33325Z" fill="white"/>
</g>
<defs>
<clipPath id="clip0_1270_555">
<rect width="32" height="32" fill="white"/>
</clipPath>
</defs>
</svg>
