<svg width="32" height="32" viewBox="0 0 32 32" fill="none" xmlns="http://www.w3.org/2000/svg">
<path d="M15.9999 31.9559C24.8122 31.9559 31.9559 24.8122 31.9559 15.9999C31.9559 7.18769 24.8122 0.0439453 15.9999 0.0439453C7.18769 0.0439453 0.0439453 7.18769 0.0439453 15.9999C0.0439453 24.8122 7.18769 31.9559 15.9999 31.9559Z" fill="#082A34"/>
<path d="M18.2215 6.27785L7.28889 11.1453C6.28264 11.5934 5.8301 12.7723 6.27811 13.7785L6.27828 13.7789C6.72629 14.7851 7.9052 15.2377 8.91145 14.7897L19.844 9.92216C20.8503 9.47415 21.3028 8.29524 20.8548 7.28899L20.8546 7.28863C20.4066 6.28238 19.2277 5.82984 18.2215 6.27785Z" fill="#37BEC1"/>
<path d="M15.189 14.1781L7.90034 17.4232C6.8941 17.8712 6.44155 19.0501 6.88956 20.0563L6.88973 20.0567C7.33774 21.063 8.51665 21.5155 9.5229 21.0675L16.8115 17.8224C17.8178 17.3744 18.2703 16.1955 17.8223 15.1892L17.8221 15.1889C17.3741 14.1826 16.1952 13.7301 15.189 14.1781Z" fill="#FBB144"/>
<path d="M23.0884 17.2105L12.1558 22.078C11.1496 22.526 10.697 23.7049 11.1451 24.7111L11.1452 24.7115C11.5932 25.7177 12.7721 26.1703 13.7784 25.7223L24.711 20.8548C25.7172 20.4068 26.1698 19.2279 25.7217 18.2216L25.7216 18.2212C25.2736 17.215 24.0947 16.7625 23.0884 17.2105Z" fill="#E4615E"/>
</svg>
