<svg width="32" height="32" viewBox="0 0 32 32" fill="none" xmlns="http://www.w3.org/2000/svg">
<mask id="mask0_maker" style="mask-type:alpha" maskUnits="userSpaceOnUse" x="0" y="0" width="32" height="32">
<circle cx="16" cy="16" r="16" fill="#D9D9D9"/>
</mask>
<g mask="url(#mask0_maker)">
<rect width="32" height="32" fill="url(#linear-gradient)"/>
</g>
<path class="cls-2" d="M8.12 20.8v-7.55l5.74 4.32V20.8h1.47v-3.56a0.86 0.86 0 0 0-0.33-0.68l-6.97-5.25a0.86 0.86 0 0 0-1.37 0.68V20.8H8.12zM23.88 20.8v-7.55l-5.74 4.32V20.8h-1.47v-3.56a0.86 0.86 0 0 1 0.33-0.68l6.97-5.25a0.86 0.86 0 0 1 1.37 0.68V20.8h-1.46z" fill="white"/>
<defs>
<linearGradient id="linear-gradient" x1="16" y1="32" x2="16" y2="0" gradientUnits="userSpaceOnUse">
<stop offset="0" stop-color="#4fa89b"/>
<stop offset="1" stop-color="#6acebb"/>
</linearGradient>
</defs>
</svg>