<svg width="32" height="32" viewBox="0 0 32 32" fill="none" xmlns="http://www.w3.org/2000/svg">
<circle cx="16.5" cy="16.5" r="16" fill="#2474DA"/>
<g clip-path="url(#clip0_1871_302)">
<path d="M11.1254 16.5382C11.1254 13.9344 12.9213 11.7458 15.3333 11.1543C14.6034 10.8537 13.8016 10.6855 12.9593 10.6855C9.61063 10.6855 6.88672 13.3113 6.88672 16.5382C6.88672 19.7652 9.60982 22.3909 12.9593 22.3909C13.8016 22.3909 14.6034 22.2235 15.3333 21.9221C12.9213 21.3307 11.1254 19.142 11.1254 16.5382Z" fill="white"/>
<path d="M20.12 10.6855C19.2778 10.6855 18.476 10.8529 17.7461 11.1543C20.158 11.7458 21.954 13.9344 21.954 16.5382C21.954 19.142 20.158 21.3307 17.7461 21.9221C18.476 22.2227 19.2778 22.3909 20.12 22.3909C23.4687 22.3909 26.1927 19.7652 26.1927 16.5382C26.1927 13.3113 23.4688 10.6855 20.12 10.6855Z" fill="white"/>
</g>
<defs>
<clipPath id="clip0_1871_302">
<rect width="19.3064" height="11.7055" fill="white" transform="translate(6.88672 10.6855)"/>
</clipPath>
</defs>
</svg>
