<svg width="32" height="32" viewBox="0 0 32 32" fill="none" xmlns="http://www.w3.org/2000/svg">
<g clip-path="url(#clip0_2130_28)">
<mask id="mask0_2130_28" style="mask-type:luminance" maskUnits="userSpaceOnUse" x="0" y="0" width="32" height="32">
<path d="M32 0H0V32H32V0Z" fill="white"/>
</mask>
<g mask="url(#mask0_2130_28)">
<path d="M16 32C24.8366 32 32 24.8366 32 16C32 7.16345 24.8366 0 16 0C7.16345 0 0 7.16345 0 16C0 24.8366 7.16345 32 16 32Z" fill="#2470FF"/>
<path opacity="0.8" d="M9.32617 18.9119V23.6772C9.32617 23.9707 9.57444 24.0924 9.65168 24.12C9.72891 24.1533 9.98822 24.2252 10.2199 24.0094L13.8249 20.545C14.1319 20.2499 14.4282 19.9398 14.6509 19.5771C14.7557 19.4065 14.7991 19.3104 14.7991 19.3104C15.0199 18.8621 15.0199 18.4304 14.8046 17.9986C14.4848 17.3566 13.6681 16.7035 12.4378 16.0836L10.3358 17.257C9.71238 17.6112 9.32617 18.2367 9.32617 18.9119Z" fill="white"/>
<path d="M7.25342 8.31282V13.3107C7.25342 13.9361 7.67272 14.4896 8.26859 14.6667C10.2989 15.2533 13.8353 16.5153 14.6905 18.3694C14.8007 18.6129 14.867 18.851 14.8892 19.0999C15.4575 18.065 15.7167 16.875 15.5954 15.6685C15.4297 13.9582 14.5249 12.403 13.1126 11.4123L8.07548 7.88664C7.98719 7.82022 7.88237 7.78702 7.77755 7.78702C7.68927 7.78702 7.61203 7.80363 7.52928 7.8479C7.36375 7.94199 7.25342 8.11357 7.25342 8.31282Z" fill="white"/>
<path opacity="0.8" d="M22.7344 18.9119V23.6772C22.7344 23.9707 22.4862 24.0924 22.4089 24.12C22.3317 24.1533 22.0722 24.2252 21.8406 24.0094L18.1517 20.4644C17.9006 20.223 17.6608 19.9678 17.4717 19.6753C17.3218 19.4437 17.2614 19.3104 17.2614 19.3104C17.0408 18.8621 17.0408 18.4304 17.2558 17.9986C17.5759 17.3566 18.3924 16.7035 19.6226 16.0836L21.7247 17.257C22.3537 17.6112 22.7344 18.2367 22.7344 18.9119Z" fill="white"/>
<path d="M24.8107 8.31247V13.3103C24.8107 13.9358 24.3913 14.4892 23.7955 14.6663C21.7652 15.253 18.2288 16.515 17.3736 18.3691C17.2632 18.6126 17.197 18.8506 17.175 19.0996C16.6067 18.0646 16.3475 16.8747 16.4687 15.6682C16.6342 13.9579 17.539 12.4027 18.9515 11.4119L23.9886 7.88629C24.077 7.81987 24.1817 7.78667 24.2866 7.78667C24.3748 7.78667 24.4521 7.80327 24.5347 7.84755C24.7003 7.94164 24.8107 8.11322 24.8107 8.31247Z" fill="white"/>
</g>
</g>
<defs>
<clipPath id="clip0_2130_28">
<rect width="32" height="32" fill="white"/>
</clipPath>
</defs>
</svg>
