<svg id="Layer_1" xmlns="http://www.w3.org/2000/svg" viewBox="0 0 100 100.02">
  <path d="M50,0h0c27.61,0,50,22.39,50,50v.02c0,27.61-22.39,50-50,50h0C22.39,100.02,0,77.63,0,50.02v-.02C0,22.39,22.39,0,50,0Z" style="fill:#fff; stroke-width:0px;"/>
  <path d="M50,25V0C22.39,0,0,22.39,0,50.01c0,27.62,22.39,50,50,50v-2.08c-20.13,0-36.46-16.33-36.46-36.46S29.87,25.01,50,25.01h0Z" style="fill:#ff0420; stroke-width:0px;"/>
  <path d="M50,0v2.08c20.13,0,36.46,16.33,36.46,36.46s-16.33,36.46-36.46,36.46v24.99c27.62,0,50-22.39,50-50S77.61,0,50,0h0Z" style="fill:#ff0420; stroke-width:0px;"/>
  <path d="M67.22,50.17c-7.59,3.78-13.28,9.48-17.07,17.07h-.32c-3.78-7.59-9.48-13.28-17.07-17.07v-.32c7.59-3.78,13.28-9.48,17.07-17.07h.32c3.78,7.59,9.48,13.28,17.07,17.07v.32Z" style="fill:#ff0420; stroke-width:0px;"/>
</svg>
