<svg width="32" height="32" viewBox="0 0 32 32" fill="none" xmlns="http://www.w3.org/2000/svg">
<g clip-path="url(#clip0_852_101)">
<path d="M15.9983 31.9965C24.8339 31.9965 31.9965 24.8339 31.9965 15.9983C31.9965 7.16267 24.8339 0 15.9983 0C7.16267 0 0 7.16267 0 15.9983C0 24.8339 7.16267 31.9965 15.9983 31.9965Z" fill="#FD684E"/>
<path d="M8.02006 17.3648C8.38979 17.3648 8.68953 17.0651 8.68953 16.6954C8.68953 16.3256 8.38979 16.0259 8.02006 16.0259C7.65032 16.0259 7.35059 16.3256 7.35059 16.6954C7.35059 17.0651 7.65032 17.3648 8.02006 17.3648Z" fill="#FEF1EC"/>
<path d="M23.98 17.3648C24.3498 17.3648 24.6495 17.0651 24.6495 16.6954C24.6495 16.3256 24.3498 16.0259 23.98 16.0259C23.6103 16.0259 23.3105 16.3256 23.3105 16.6954C23.3105 17.0651 23.6103 17.3648 23.98 17.3648Z" fill="#FEF1EC"/>
<path d="M22.9107 13.3756C23.2804 13.3756 23.5802 13.0759 23.5802 12.7062C23.5802 12.3364 23.2804 12.0367 22.9107 12.0367C22.5409 12.0367 22.2412 12.3364 22.2412 12.7062C22.2412 13.0759 22.5409 13.3756 22.9107 13.3756Z" fill="#FEF1EC"/>
<path d="M19.9908 10.4562C20.3605 10.4562 20.6602 10.1565 20.6602 9.78672C20.6602 9.41698 20.3605 9.11725 19.9908 9.11725C19.621 9.11725 19.3213 9.41698 19.3213 9.78672C19.3213 10.1565 19.621 10.4562 19.9908 10.4562Z" fill="#FEF1EC"/>
<path d="M15.9986 9.38637C16.3683 9.38637 16.668 9.08663 16.668 8.71689C16.668 8.34716 16.3683 8.04742 15.9986 8.04742C15.6288 8.04742 15.3291 8.34716 15.3291 8.71689C15.3291 9.08663 15.6288 9.38637 15.9986 9.38637Z" fill="#FEF1EC"/>
<path d="M12.0093 10.4562C12.3791 10.4562 12.6788 10.1565 12.6788 9.78672C12.6788 9.41698 12.3791 9.11725 12.0093 9.11725C11.6396 9.11725 11.3398 9.41698 11.3398 9.78672C11.3398 10.1565 11.6396 10.4562 12.0093 10.4562Z" fill="#FEF1EC"/>
<path d="M9.08939 13.3756C9.45913 13.3756 9.75886 13.0759 9.75886 12.7062C9.75886 12.3364 9.45913 12.0367 9.08939 12.0367C8.71965 12.0367 8.41992 12.3364 8.41992 12.7062C8.41992 13.0759 8.71965 13.3756 9.08939 13.3756Z" fill="#FEF1EC"/>
<path d="M11.2637 12.7165C12.3921 11.3569 14.0934 10.4872 15.9983 10.4872C18.4726 10.4872 20.6052 11.9504 21.5818 14.0555H12.9995C12.7475 14.0555 12.506 13.9554 12.33 13.7794L11.2637 12.7165Z" fill="#FEF1EC"/>
<path d="M21.9513 15.0355H12.5925C12.3406 15.0355 12.099 14.9354 11.923 14.756L10.6738 13.5102C10.1907 14.3453 9.90079 15.3046 9.85938 16.3261H22.1376C22.1203 15.8878 22.0548 15.4461 21.9478 15.0355H21.9513Z" fill="#FEF1EC"/>
<path d="M9.85938 17.3027C9.87663 17.741 9.93875 18.1689 10.0457 18.5796L10.0733 18.5934H19.408C19.6599 18.5934 19.9014 18.6934 20.0774 18.8729L21.3232 20.1187C21.8063 19.2835 22.0962 18.3242 22.1376 17.3027H9.85938Z" fill="#FEF1EC"/>
<path d="M6.79492 19.5734H18.9282C19.1939 19.5734 19.4458 19.6838 19.6253 19.877L20.1153 20.405H7.63003C7.17107 20.405 6.79837 20.0323 6.79837 19.5734H6.79492Z" fill="#FEF1EC"/>
<path d="M22.6028 19.5734H25.2047C25.2047 20.0323 24.8286 20.405 24.3696 20.405H22.2715C22.2715 20.405 22.5165 19.9875 22.6028 19.5734Z" fill="#FEF1EC"/>
<path d="M8.48926 21.3748L23.5144 21.4024C23.5144 21.8613 23.1417 22.234 22.6827 22.234L9.32437 22.2099C8.8654 22.2099 8.49271 21.8372 8.49271 21.3748H8.48926Z" fill="#FEF1EC"/>
</g>
<defs>
<clipPath id="clip0_852_101">
<rect width="32" height="32" fill="white"/>
</clipPath>
</defs>
</svg>
